<?xml version="1.0" encoding="UTF-8"?>
<svg id="Layer_2" data-name="Layer 2" xmlns="http://www.w3.org/2000/svg" viewBox="0 0 1073.31 11.44">
  <defs>
    <style>
      .cls-1 {
        fill: #b3b3b5;
        stroke-width: 0px;
      }
    </style>
  </defs>
  <g id="copyright_tet">
    <g>
      <path class="cls-1" d="m1.53,6.03c0,.63.2,1.11.61,1.41s.94.46,1.6.46,1.09-.13,1.39-.38c.3-.26.45-.57.45-.93,0-.31-.07-.55-.2-.71-.13-.16-.31-.29-.52-.37-.26-.1-.74-.24-1.44-.42-.54-.14-.92-.24-1.16-.31-.69-.19-1.19-.48-1.48-.87-.3-.39-.45-.84-.45-1.34,0-.42.09-.8.26-1.12.17-.32.42-.59.72-.81s.65-.38,1.03-.48.77-.16,1.18-.16c.46,0,.9.06,1.3.18s.76.3,1.07.54.55.54.72.89c.17.35.26.75.26,1.18h-1.53c-.03-.54-.21-.93-.54-1.17s-.78-.37-1.34-.37c-.2,0-.38.02-.57.05-.18.04-.35.1-.51.19s-.29.21-.38.35-.14.33-.14.54c0,.29.09.53.28.71.18.18.44.32.76.41l.34.08c.37.1.71.19,1.03.28.32.08.57.15.76.2s.32.09.39.11c.55.16.96.45,1.26.87.29.42.44.87.44,1.35s-.1.88-.29,1.23c-.19.35-.45.63-.78.85-.33.22-.7.38-1.11.49-.42.11-.85.16-1.3.16-.5,0-.98-.06-1.42-.19-.44-.13-.83-.32-1.16-.57s-.59-.58-.78-.98-.29-.86-.29-1.38h1.53Z"/>
      <path class="cls-1" d="m8.44.21h1.53v8.73h-1.53V.21Z"/>
      <path class="cls-1" d="m11.01.21h7.06v1.32h-2.77v7.41h-1.53V1.53h-2.76V.21Z"/>
      <path class="cls-1" d="m19.09.21h1.53v8.73h-1.53V.21Z"/>
      <path class="cls-1" d="m27.94.35c.52.24.96.56,1.33.98.36.42.64.91.83,1.46s.29,1.14.29,1.77-.1,1.22-.29,1.77-.47,1.04-.83,1.46c-.36.42-.8.75-1.33.98s-1.1.35-1.74.35-1.21-.12-1.74-.35-.96-.56-1.33-.98c-.36-.42-.64-.91-.83-1.46s-.29-1.14-.29-1.77.1-1.22.29-1.77.47-1.04.83-1.46c.36-.42.8-.75,1.33-.98s1.1-.35,1.74-.35,1.21.12,1.74.35Zm-2.91,1.17c-.34.18-.62.43-.83.74s-.38.66-.48,1.06c-.11.4-.16.81-.16,1.25s.05.85.16,1.24c.11.39.27.75.48,1.06.22.31.49.56.83.75.34.18.73.27,1.18.27s.84-.09,1.18-.27c.34-.18.62-.43.83-.75.22-.31.38-.67.48-1.06.11-.4.16-.81.16-1.24s-.05-.84-.16-1.24c-.11-.39-.27-.75-.48-1.06-.22-.31-.49-.56-.83-.75s-.73-.27-1.18-.27-.84.09-1.18.27Z"/>
      <path class="cls-1" d="m32.78,6.03c0,.63.2,1.11.61,1.41s.94.46,1.6.46,1.09-.13,1.39-.38c.3-.26.45-.57.45-.93,0-.31-.07-.55-.2-.71-.13-.16-.31-.29-.52-.37-.26-.1-.74-.24-1.44-.42-.54-.14-.92-.24-1.16-.31-.69-.19-1.19-.48-1.48-.87-.3-.39-.45-.84-.45-1.34,0-.42.09-.8.26-1.12.17-.32.42-.59.72-.81s.65-.38,1.03-.48.77-.16,1.18-.16c.46,0,.9.06,1.3.18s.76.3,1.07.54.55.54.72.89c.17.35.26.75.26,1.18h-1.53c-.03-.54-.21-.93-.54-1.17s-.78-.37-1.34-.37c-.2,0-.38.02-.57.05-.18.04-.35.1-.51.19s-.29.21-.38.35-.14.33-.14.54c0,.29.09.53.28.71.18.18.44.32.76.41l.34.08c.37.1.71.19,1.03.28.32.08.57.15.76.2s.32.09.39.11c.55.16.96.45,1.26.87.29.42.44.87.44,1.35s-.1.88-.29,1.23c-.19.35-.45.63-.78.85-.33.22-.7.38-1.11.49-.42.11-.85.16-1.3.16-.5,0-.98-.06-1.42-.19-.44-.13-.83-.32-1.16-.57s-.59-.58-.78-.98-.29-.86-.29-1.38h1.53Z"/>
      <path class="cls-1" d="m42.93.21h1.39v1.32h-1.39V.21Zm0,2.41h1.39v6.32h-1.39V2.62Z"/>
      <path class="cls-1" d="m46.89,6.91c.03.38.18.66.44.84.26.17.59.26.99.26.16,0,.31,0,.46-.03.15-.02.31-.06.45-.12.15-.06.26-.15.35-.26.09-.11.13-.25.13-.42-.02-.28-.15-.48-.42-.6s-.66-.24-1.21-.35c-.23-.05-.38-.08-.44-.1-.3-.07-.57-.14-.79-.22-.23-.08-.44-.19-.62-.33s-.34-.32-.45-.53-.17-.48-.17-.79c0-.33.08-.61.24-.84s.37-.43.63-.57.54-.25.85-.31c.31-.06.61-.09.92-.09.71,0,1.29.15,1.75.44.24.16.44.37.6.62.15.25.25.54.29.89h-1.45c-.06-.31-.2-.53-.43-.65-.23-.13-.51-.19-.86-.19-.11,0-.24,0-.37.02-.13.02-.25.05-.37.1s-.22.12-.29.2c-.08.08-.12.19-.12.32,0,.26.13.45.39.57.26.12.67.23,1.22.35.24.06.39.09.44.1.3.07.57.15.79.23.23.08.44.19.63.32.19.13.34.31.45.52.11.21.17.47.17.77,0,.36-.08.67-.24.93-.16.26-.38.48-.65.64-.27.16-.58.28-.91.36-.33.08-.67.12-1.01.12-.83,0-1.5-.19-2.02-.56-.51-.38-.77-.92-.78-1.64h1.39Z"/>
      <path class="cls-1" d="m56.63,6.91c.03.38.18.66.44.84.26.17.59.26.99.26.16,0,.31,0,.46-.03.15-.02.31-.06.45-.12.15-.06.26-.15.35-.26.09-.11.13-.25.13-.42-.02-.28-.15-.48-.42-.6s-.66-.24-1.21-.35c-.23-.05-.38-.08-.44-.1-.3-.07-.57-.14-.79-.22-.23-.08-.44-.19-.62-.33s-.34-.32-.45-.53-.17-.48-.17-.79c0-.33.08-.61.24-.84s.37-.43.63-.57.54-.25.85-.31c.31-.06.61-.09.92-.09.71,0,1.29.15,1.75.44.24.16.44.37.6.62.15.25.25.54.29.89h-1.45c-.06-.31-.2-.53-.43-.65-.23-.13-.51-.19-.86-.19-.11,0-.24,0-.37.02-.13.02-.25.05-.37.1s-.22.12-.29.2c-.08.08-.12.19-.12.32,0,.26.13.45.39.57.26.12.67.23,1.22.35.24.06.39.09.44.1.3.07.57.15.79.23.23.08.44.19.63.32.19.13.34.31.45.52.11.21.17.47.17.77,0,.36-.08.67-.24.93-.16.26-.38.48-.65.64-.27.16-.58.28-.91.36-.33.08-.67.12-1.01.12-.83,0-1.5-.19-2.02-.56-.51-.38-.77-.92-.78-1.64h1.39Z"/>
      <path class="cls-1" d="m61.96,2.62h1.32v.86h.02c.19-.35.45-.61.8-.78.35-.17.73-.25,1.15-.25.95,0,1.68.32,2.19.95.51.63.76,1.44.76,2.41,0,.43-.06.85-.17,1.24-.11.39-.28.75-.5,1.06-.22.31-.51.55-.86.73-.35.18-.75.27-1.2.27s-.84-.08-1.22-.24c-.38-.16-.68-.41-.89-.75h-.02v3.15h-1.39V2.62Zm4.4,1.58c-.31-.44-.74-.65-1.28-.65s-1.01.2-1.31.6c-.31.4-.46.95-.46,1.64,0,.65.16,1.19.48,1.6.32.42.75.62,1.3.62.3,0,.57-.06.79-.18.23-.12.41-.29.55-.5s.24-.45.31-.71.1-.54.1-.83c0-.62-.16-1.15-.46-1.58Z"/>
      <path class="cls-1" d="m69.95,8.18c-.57-.61-.85-1.42-.85-2.41s.28-1.79.85-2.4,1.35-.92,2.34-.92,1.77.31,2.34.92.85,1.42.85,2.4-.28,1.8-.85,2.41c-.57.62-1.35.92-2.34.92s-1.77-.31-2.34-.92Zm3.13-.37c.23-.13.42-.29.56-.51s.26-.45.33-.71.11-.54.11-.83-.04-.56-.11-.82-.18-.5-.33-.71-.33-.38-.56-.51-.49-.18-.79-.18-.57.06-.79.18c-.23.12-.42.29-.56.51-.15.22-.26.45-.33.71s-.11.53-.11.82.04.56.11.83.18.5.33.71c.15.21.34.38.57.51.23.13.49.19.79.19s.57-.06.79-.19Z"/>
      <path class="cls-1" d="m76.64,2.62h1.32v.93l.02.02c.21-.35.49-.62.83-.82.34-.2.72-.3,1.14-.3.7,0,1.25.19,1.64.56.4.37.59.9.59,1.59v4.34h-1.39v-3.97c0-.49-.11-.85-.31-1.08-.2-.23-.51-.34-.92-.34-.46,0-.83.16-1.11.48-.28.32-.42.71-.42,1.19v3.73h-1.39V2.62Z"/>
      <path class="cls-1" d="m84.7,6.91c.03.38.18.66.44.84.26.17.59.26.99.26.16,0,.31,0,.46-.03.15-.02.31-.06.45-.12.15-.06.26-.15.35-.26.09-.11.13-.25.13-.42-.02-.28-.15-.48-.42-.6s-.66-.24-1.21-.35c-.23-.05-.38-.08-.44-.1-.3-.07-.57-.14-.79-.22-.23-.08-.44-.19-.62-.33s-.34-.32-.45-.53-.17-.48-.17-.79c0-.33.08-.61.24-.84s.37-.43.63-.57.54-.25.85-.31c.31-.06.61-.09.92-.09.71,0,1.29.15,1.75.44.24.16.44.37.6.62.15.25.25.54.29.89h-1.45c-.06-.31-.2-.53-.43-.65-.23-.13-.51-.19-.86-.19-.11,0-.24,0-.37.02-.13.02-.25.05-.37.1s-.22.12-.29.2c-.08.08-.12.19-.12.32,0,.26.13.45.39.57.26.12.67.23,1.22.35.24.06.39.09.44.1.3.07.57.15.79.23.23.08.44.19.63.32.19.13.34.31.45.52.11.21.17.47.17.77,0,.36-.08.67-.24.93-.16.26-.38.48-.65.64-.27.16-.58.28-.91.36-.33.08-.67.12-1.01.12-.83,0-1.5-.19-2.02-.56-.51-.38-.77-.92-.78-1.64h1.39Z"/>
      <path class="cls-1" d="m90.55,8.18c-.57-.61-.85-1.42-.85-2.41s.28-1.79.85-2.4,1.35-.92,2.34-.92,1.77.31,2.34.92.85,1.42.85,2.4-.28,1.8-.85,2.41c-.57.62-1.35.92-2.34.92s-1.77-.31-2.34-.92Zm3.13-.37c.23-.13.42-.29.56-.51s.26-.45.33-.71.11-.54.11-.83-.04-.56-.11-.82-.18-.5-.33-.71-.33-.38-.56-.51-.49-.18-.79-.18-.57.06-.79.18c-.23.12-.42.29-.56.51-.15.22-.26.45-.33.71s-.11.53-.11.82.04.56.11.83.18.5.33.71c.15.21.34.38.57.51.23.13.49.19.79.19s.57-.06.79-.19Z"/>
      <path class="cls-1" d="m97.24,2.62h1.31v1.22h.02c.04-.17.12-.34.23-.5.11-.16.26-.31.43-.45.17-.13.36-.24.57-.32.2-.08.41-.12.61-.12.16,0,.31,0,.44.02.04,0,.07.01.09.01v1.34s-.08-.02-.13-.02c-.21-.02-.37-.04-.46-.04-.5,0-.91.19-1.23.57-.32.38-.48.91-.48,1.59v3.01h-1.39V2.62Z"/>
      <path class="cls-1" d="m102.41,6.13c0,.53.15.97.44,1.33.29.36.71.54,1.26.54.78,0,1.3-.35,1.54-1.05h1.32c-.15.68-.48,1.2-1.01,1.58s-1.14.57-1.85.57c-.97,0-1.73-.31-2.27-.92-.55-.61-.82-1.41-.82-2.41,0-.45.07-.87.21-1.28s.35-.76.62-1.07.59-.55.97-.73c.38-.17.8-.26,1.25-.26s.86.09,1.23.26.69.41.96.71c.27.3.47.65.61,1.04.14.39.21.8.21,1.22,0,.15,0,.31-.02.46h-4.64Zm3.25-.92c-.02-.46-.18-.86-.47-1.19-.29-.33-.66-.49-1.12-.49s-.86.16-1.17.48c-.31.32-.47.72-.49,1.2h3.25Z"/>
      <path class="cls-1" d="m114.07,8.93h-1.32v-.86h-.02c-.17.34-.43.6-.79.77-.35.17-.74.26-1.17.26-.95,0-1.68-.31-2.19-.94-.51-.63-.76-1.44-.76-2.43,0-.55.08-1.04.23-1.45.15-.42.35-.76.61-1.03.26-.27.55-.47.87-.61.33-.13.67-.2,1.03-.2.43,0,.84.08,1.22.25.38.17.68.41.88.74h.02V.21h1.39v8.73Zm-4.42-1.56c.3.42.73.64,1.3.64.3,0,.56-.06.79-.19.22-.13.41-.29.56-.51s.25-.45.32-.71.1-.54.1-.83c0-.69-.16-1.24-.47-1.63-.31-.39-.74-.59-1.28-.59-.31,0-.58.06-.81.19-.23.13-.42.3-.56.52-.14.22-.24.47-.31.74-.07.27-.1.56-.1.85,0,.59.15,1.1.45,1.53Z"/>
      <path class="cls-1" d="m119.02.21h1.39v3.23h.02c.19-.3.46-.54.81-.72.35-.18.71-.27,1.07-.27.95,0,1.68.32,2.19.95.51.63.76,1.44.76,2.41,0,.43-.06.85-.17,1.24-.11.39-.28.75-.5,1.06-.22.31-.51.55-.86.73-.35.18-.75.27-1.2.27-.5,0-.94-.08-1.33-.23-.39-.15-.67-.42-.86-.81h-.02v.87h-1.32V.21Zm4.4,3.99c-.31-.44-.74-.65-1.28-.65s-1.01.2-1.31.6c-.31.4-.46.95-.46,1.64,0,.65.16,1.19.48,1.6.32.42.75.62,1.3.62.3,0,.57-.06.79-.18.23-.12.41-.29.55-.5s.24-.45.31-.71.1-.54.1-.83c0-.62-.16-1.15-.46-1.58Z"/>
      <path class="cls-1" d="m125.75,2.62h1.53l1.65,4.72h.02l1.6-4.72h1.45l-2.46,6.66s-.04.1-.06.17c-.15.36-.27.64-.37.84-.1.2-.22.4-.38.57-.16.18-.35.32-.58.42s-.52.15-.85.15-.65-.02-.96-.07v-1.17l.13.02c.23.04.4.06.53.06.3,0,.52-.07.64-.21.13-.14.24-.36.34-.67l.16-.49-2.39-6.29Z"/>
      <path class="cls-1" d="m136.38.21h6.03v1.32h-4.5v2.29h3.95v1.25h-3.95v3.87h-1.53V.21Z"/>
      <path class="cls-1" d="m143.99,8.18c-.57-.61-.85-1.42-.85-2.41s.28-1.79.85-2.4,1.35-.92,2.34-.92,1.77.31,2.34.92.85,1.42.85,2.4-.28,1.8-.85,2.41c-.57.62-1.35.92-2.34.92s-1.77-.31-2.34-.92Zm3.13-.37c.23-.13.42-.29.56-.51s.26-.45.33-.71.11-.54.11-.83-.04-.56-.11-.82-.18-.5-.33-.71-.33-.38-.56-.51-.49-.18-.79-.18-.57.06-.79.18c-.23.12-.42.29-.56.51-.15.22-.26.45-.33.71s-.11.53-.11.82.04.56.11.83.18.5.33.71c.15.21.34.38.57.51.23.13.49.19.79.19s.57-.06.79-.19Z"/>
      <path class="cls-1" d="m150.68,2.62h1.32v.93l.02.02c.21-.35.49-.62.83-.82.34-.2.72-.3,1.14-.3.7,0,1.25.19,1.64.56.4.37.59.9.59,1.59v4.34h-1.39v-3.97c0-.49-.11-.85-.31-1.08-.2-.23-.51-.34-.92-.34-.46,0-.83.16-1.11.48-.28.32-.42.71-.42,1.19v3.73h-1.39V2.62Z"/>
      <path class="cls-1" d="m163.65,8.93h-1.32v-.86h-.02c-.17.34-.43.6-.79.77-.35.17-.74.26-1.17.26-.95,0-1.68-.31-2.19-.94-.51-.63-.76-1.44-.76-2.43,0-.55.08-1.04.23-1.45.15-.42.35-.76.61-1.03.26-.27.55-.47.87-.61.33-.13.67-.2,1.03-.2.43,0,.84.08,1.22.25.38.17.68.41.88.74h.02V.21h1.39v8.73Zm-4.42-1.56c.3.42.73.64,1.3.64.3,0,.56-.06.79-.19.22-.13.41-.29.56-.51s.25-.45.32-.71.1-.54.1-.83c0-.69-.16-1.24-.47-1.63-.31-.39-.74-.59-1.28-.59-.31,0-.58.06-.81.19-.23.13-.42.3-.56.52-.14.22-.24.47-.31.74-.07.27-.1.56-.1.85,0,.59.15,1.1.45,1.53Z"/>
      <path class="cls-1" d="m165.72,8.18c-.57-.61-.85-1.42-.85-2.41s.28-1.79.85-2.4,1.35-.92,2.34-.92,1.77.31,2.34.92.85,1.42.85,2.4-.28,1.8-.85,2.41c-.57.62-1.35.92-2.34.92s-1.77-.31-2.34-.92Zm3.13-.37c.23-.13.42-.29.56-.51s.26-.45.33-.71.11-.54.11-.83-.04-.56-.11-.82-.18-.5-.33-.71-.33-.38-.56-.51-.49-.18-.79-.18-.57.06-.79.18c-.23.12-.42.29-.56.51-.15.22-.26.45-.33.71s-.11.53-.11.82.04.56.11.83.18.5.33.71c.15.21.34.38.57.51.23.13.49.19.79.19s.57-.06.79-.19Z"/>
      <path class="cls-1" d="m173.46,6.91c.03.38.18.66.44.84.26.17.59.26.99.26.16,0,.31,0,.46-.03.15-.02.31-.06.45-.12.15-.06.26-.15.35-.26.09-.11.13-.25.13-.42-.02-.28-.15-.48-.42-.6s-.66-.24-1.21-.35c-.23-.05-.38-.08-.44-.1-.3-.07-.57-.14-.79-.22-.23-.08-.44-.19-.62-.33s-.34-.32-.45-.53-.17-.48-.17-.79c0-.33.08-.61.24-.84s.37-.43.63-.57.54-.25.85-.31c.31-.06.61-.09.92-.09.71,0,1.29.15,1.75.44.24.16.44.37.6.62.15.25.25.54.29.89h-1.45c-.06-.31-.2-.53-.43-.65-.23-.13-.51-.19-.86-.19-.11,0-.24,0-.37.02-.13.02-.25.05-.37.1s-.22.12-.29.2c-.08.08-.12.19-.12.32,0,.26.13.45.39.57.26.12.67.23,1.22.35.24.06.39.09.44.1.3.07.57.15.79.23.23.08.44.19.63.32.19.13.34.31.45.52.11.21.17.47.17.77,0,.36-.08.67-.24.93-.16.26-.38.48-.65.64-.27.16-.58.28-.91.36-.33.08-.67.12-1.01.12-.83,0-1.5-.19-2.02-.56-.51-.38-.77-.92-.78-1.64h1.39Z"/>
      <path class="cls-1" d="m182.34.21h1.53v8.73h-1.53V.21Z"/>
      <path class="cls-1" d="m185.55,2.62h1.32v.93l.02.02c.21-.35.49-.62.83-.82.34-.2.72-.3,1.14-.3.7,0,1.25.19,1.64.56.4.37.59.9.59,1.59v4.34h-1.39v-3.97c0-.49-.11-.85-.31-1.08-.2-.23-.51-.34-.92-.34-.46,0-.83.16-1.11.48-.28.32-.42.71-.42,1.19v3.73h-1.39V2.62Z"/>
      <path class="cls-1" d="m193.61,6.91c.03.38.18.66.44.84.26.17.59.26.99.26.16,0,.31,0,.46-.03.15-.02.31-.06.45-.12.15-.06.26-.15.35-.26.09-.11.13-.25.13-.42-.02-.28-.15-.48-.42-.6s-.66-.24-1.21-.35c-.23-.05-.38-.08-.44-.1-.3-.07-.57-.14-.79-.22-.23-.08-.44-.19-.62-.33s-.34-.32-.45-.53-.17-.48-.17-.79c0-.33.08-.61.24-.84s.37-.43.63-.57.54-.25.85-.31c.31-.06.61-.09.92-.09.71,0,1.29.15,1.75.44.24.16.44.37.6.62.15.25.25.54.29.89h-1.45c-.06-.31-.2-.53-.43-.65-.23-.13-.51-.19-.86-.19-.11,0-.24,0-.37.02-.13.02-.25.05-.37.1s-.22.12-.29.2c-.08.08-.12.19-.12.32,0,.26.13.45.39.57.26.12.67.23,1.22.35.24.06.39.09.44.1.3.07.57.15.79.23.23.08.44.19.63.32.19.13.34.31.45.52.11.21.17.47.17.77,0,.36-.08.67-.24.93-.16.26-.38.48-.65.64-.27.16-.58.28-.91.36-.33.08-.67.12-1.01.12-.83,0-1.5-.19-2.02-.56-.51-.38-.77-.92-.78-1.64h1.39Z"/>
      <path class="cls-1" d="m198.27,2.62h1.05V.72h1.39v1.89h1.26v1.04h-1.26v3.37c0,.33.04.55.12.68.08.13.26.19.55.19.26,0,.46-.02.59-.05v1.08c-.07,0-.18.02-.31.04-.26.02-.46.04-.6.04-.68,0-1.14-.13-1.38-.38-.23-.25-.36-.66-.37-1.23v-3.73h-1.05v-1.04Z"/>
      <path class="cls-1" d="m203.01.21h1.39v1.32h-1.39V.21Zm0,2.41h1.39v6.32h-1.39V2.62Z"/>
      <path class="cls-1" d="m205.28,2.62h1.05V.72h1.39v1.89h1.26v1.04h-1.26v3.37c0,.33.04.55.12.68.08.13.26.19.55.19.26,0,.46-.02.59-.05v1.08c-.07,0-.18.02-.31.04-.26.02-.46.04-.6.04-.68,0-1.14-.13-1.38-.38-.23-.25-.36-.66-.37-1.23v-3.73h-1.05v-1.04Z"/>
      <path class="cls-1" d="m215.54,8.93h-1.37v-.88h-.02c-.17.31-.42.56-.76.76s-.68.29-1.04.29c-.81,0-1.41-.21-1.79-.62-.38-.41-.57-1.03-.57-1.86V2.62h1.39v3.87c0,.54.1.92.31,1.16.2.24.51.35.9.35.55,0,.94-.15,1.19-.46.25-.31.37-.73.37-1.26v-3.67h1.39v6.32Z"/>
      <path class="cls-1" d="m221.27,4.73c-.06-.38-.21-.67-.47-.87-.26-.21-.58-.31-.97-.31-.2,0-.41.03-.61.1-.2.07-.38.18-.56.35s-.31.4-.42.71c-.11.31-.16.69-.16,1.14,0,.28.03.54.1.79.06.25.17.48.3.69.13.21.31.37.52.5s.46.18.76.18c.41,0,.74-.13,1.01-.38s.43-.61.5-1.06h1.39c-.13.82-.44,1.45-.94,1.89-.5.44-1.15.65-1.96.65-.96,0-1.71-.3-2.25-.91-.54-.61-.81-1.39-.81-2.35s.27-1.81.81-2.44,1.31-.95,2.31-.95c.77,0,1.43.2,1.96.59.53.39.83.96.89,1.7h-1.39Z"/>
      <path class="cls-1" d="m223.83.21h1.39v1.32h-1.39V.21Zm0,2.41h1.39v6.32h-1.39V2.62Z"/>
      <path class="cls-1" d="m227.3,8.18c-.57-.61-.85-1.42-.85-2.41s.28-1.79.85-2.4,1.35-.92,2.34-.92,1.77.31,2.34.92.85,1.42.85,2.4-.28,1.8-.85,2.41c-.57.62-1.35.92-2.34.92s-1.77-.31-2.34-.92Zm3.13-.37c.23-.13.42-.29.56-.51s.26-.45.33-.71.11-.54.11-.83-.04-.56-.11-.82-.18-.5-.33-.71-.33-.38-.56-.51-.49-.18-.79-.18-.57.06-.79.18c-.23.12-.42.29-.56.51-.15.22-.26.45-.33.71s-.11.53-.11.82.04.56.11.83.18.5.33.71c.15.21.34.38.57.51.23.13.49.19.79.19s.57-.06.79-.19Z"/>
      <path class="cls-1" d="m233.99,2.62h1.32v.93l.02.02c.21-.35.49-.62.83-.82.34-.2.72-.3,1.14-.3.7,0,1.25.19,1.64.56.4.37.59.9.59,1.59v4.34h-1.39v-3.97c0-.49-.11-.85-.31-1.08-.2-.23-.51-.34-.92-.34-.46,0-.83.16-1.11.48-.28.32-.42.71-.42,1.19v3.73h-1.39V2.62Z"/>
      <path class="cls-1" d="m246.29,7.53c0,.17.03.29.07.37s.13.11.26.11c.13,0,.25,0,.34-.02v.97c-.11.04-.26.08-.44.11-.18.03-.33.05-.44.05-.3,0-.54-.06-.73-.18s-.3-.32-.35-.59c-.26.25-.59.44-.99.57s-.8.2-1.2.2c-.61,0-1.12-.16-1.54-.48-.42-.32-.62-.78-.62-1.36,0-.38.07-.69.2-.94.13-.25.32-.44.54-.57.23-.13.48-.23.75-.3.27-.06.58-.12.94-.16.14-.02.34-.05.61-.09.46-.06.78-.13.98-.23.2-.09.3-.29.3-.58,0-.17-.04-.31-.12-.43-.08-.11-.18-.2-.31-.26-.13-.06-.26-.1-.42-.13-.15-.02-.31-.04-.47-.04-.41,0-.73.08-.98.25-.24.17-.38.42-.42.75h-1.39c.02-.39.12-.72.28-1,.16-.27.38-.49.65-.65.27-.16.57-.28.9-.35.33-.07.68-.1,1.04-.1.32,0,.63.04.93.1.3.07.57.18.81.32s.43.34.57.57.21.51.21.83v3.25Zm-1.39-1.76c-.14.09-.3.15-.48.2-.18.04-.41.08-.69.11-.23.02-.41.05-.54.07-.35.06-.63.16-.83.32-.2.16-.31.4-.31.73,0,.15.04.27.12.38.08.11.19.19.32.25.13.06.27.11.42.13.15.03.29.04.42.04.16,0,.34-.02.52-.07s.35-.12.51-.21c.16-.1.29-.22.39-.37.1-.15.15-.33.15-.54v-1.04Z"/>
      <path class="cls-1" d="m247.83.21h1.39v8.73h-1.39V.21Z"/>
      <path class="cls-1" d="m251.83,6.13c0,.53.15.97.44,1.33.29.36.71.54,1.26.54.78,0,1.3-.35,1.54-1.05h1.32c-.15.68-.48,1.2-1.01,1.58s-1.14.57-1.85.57c-.97,0-1.73-.31-2.27-.92-.55-.61-.82-1.41-.82-2.41,0-.45.07-.87.21-1.28s.35-.76.62-1.07.59-.55.97-.73c.38-.17.8-.26,1.25-.26s.86.09,1.23.26.69.41.96.71c.27.3.47.65.61,1.04.14.39.21.8.21,1.22,0,.15,0,.31-.02.46h-4.64Zm3.25-.92c-.02-.46-.18-.86-.47-1.19-.29-.33-.66-.49-1.12-.49s-.86.16-1.17.48c-.31.32-.47.72-.49,1.2h3.25Z"/>
      <path class="cls-1" d="m258.59,6.91c.03.38.18.66.44.84.26.17.59.26.99.26.16,0,.31,0,.46-.03.15-.02.31-.06.45-.12.15-.06.26-.15.35-.26.09-.11.13-.25.13-.42-.02-.28-.15-.48-.42-.6s-.66-.24-1.21-.35c-.23-.05-.38-.08-.44-.1-.3-.07-.57-.14-.79-.22-.23-.08-.44-.19-.62-.33s-.34-.32-.45-.53-.17-.48-.17-.79c0-.33.08-.61.24-.84s.37-.43.63-.57.54-.25.85-.31c.31-.06.61-.09.92-.09.71,0,1.29.15,1.75.44.24.16.44.37.6.62.15.25.25.54.29.89h-1.45c-.06-.31-.2-.53-.43-.65-.23-.13-.51-.19-.86-.19-.11,0-.24,0-.37.02-.13.02-.25.05-.37.1s-.22.12-.29.2c-.08.08-.12.19-.12.32,0,.26.13.45.39.57.26.12.67.23,1.22.35.24.06.39.09.44.1.3.07.57.15.79.23.23.08.44.19.63.32.19.13.34.31.45.52.11.21.17.47.17.77,0,.36-.08.67-.24.93-.16.26-.38.48-.65.64-.27.16-.58.28-.91.36-.33.08-.67.12-1.01.12-.83,0-1.5-.19-2.02-.56-.51-.38-.77-.92-.78-1.64h1.39Z"/>
      <path class="cls-1" d="m267.32,2.62h1.32v.86h.02c.19-.35.45-.61.8-.78.35-.17.73-.25,1.15-.25.95,0,1.68.32,2.19.95.51.63.76,1.44.76,2.41,0,.43-.06.85-.17,1.24-.11.39-.28.75-.5,1.06-.22.31-.51.55-.86.73-.35.18-.75.27-1.2.27s-.84-.08-1.22-.24c-.38-.16-.68-.41-.89-.75h-.02v3.15h-1.39V2.62Zm4.4,1.58c-.31-.44-.74-.65-1.28-.65s-1.01.2-1.31.6c-.31.4-.46.95-.46,1.64,0,.65.16,1.19.48,1.6.32.42.75.62,1.3.62.3,0,.57-.06.79-.18.23-.12.41-.29.55-.5s.24-.45.31-.71.1-.54.1-.83c0-.62-.16-1.15-.46-1.58Z"/>
      <path class="cls-1" d="m280.04,7.53c0,.17.03.29.07.37s.13.11.26.11c.13,0,.25,0,.34-.02v.97c-.11.04-.26.08-.44.11-.18.03-.33.05-.44.05-.3,0-.54-.06-.73-.18s-.3-.32-.35-.59c-.26.25-.59.44-.99.57s-.8.2-1.2.2c-.61,0-1.12-.16-1.54-.48-.42-.32-.62-.78-.62-1.36,0-.38.07-.69.2-.94.13-.25.32-.44.54-.57.23-.13.48-.23.75-.3.27-.06.58-.12.94-.16.14-.02.34-.05.61-.09.46-.06.78-.13.98-.23.2-.09.3-.29.3-.58,0-.17-.04-.31-.12-.43-.08-.11-.18-.2-.31-.26-.13-.06-.26-.1-.42-.13-.15-.02-.31-.04-.47-.04-.41,0-.73.08-.98.25-.24.17-.38.42-.42.75h-1.39c.02-.39.12-.72.28-1,.16-.27.38-.49.65-.65.27-.16.57-.28.9-.35.33-.07.68-.1,1.04-.1.32,0,.63.04.93.1.3.07.57.18.81.32s.43.34.57.57.21.51.21.83v3.25Zm-1.39-1.76c-.14.09-.3.15-.48.2-.18.04-.41.08-.69.11-.23.02-.41.05-.54.07-.35.06-.63.16-.83.32-.2.16-.31.4-.31.73,0,.15.04.27.12.38.08.11.19.19.32.25.13.06.27.11.42.13.15.03.29.04.42.04.16,0,.34-.02.52-.07s.35-.12.51-.21c.16-.1.29-.22.39-.37.1-.15.15-.33.15-.54v-1.04Z"/>
      <path class="cls-1" d="m281.54,2.62h1.31v1.22h.02c.04-.17.12-.34.23-.5.11-.16.26-.31.43-.45.17-.13.36-.24.57-.32.2-.08.41-.12.61-.12.16,0,.31,0,.44.02.04,0,.07.01.09.01v1.34s-.08-.02-.13-.02c-.21-.02-.37-.04-.46-.04-.5,0-.91.19-1.23.57-.32.38-.48.91-.48,1.59v3.01h-1.39V2.62Z"/>
      <path class="cls-1" d="m291.13,7.53c0,.17.03.29.07.37s.13.11.26.11c.13,0,.25,0,.34-.02v.97c-.11.04-.26.08-.44.11-.18.03-.33.05-.44.05-.3,0-.54-.06-.73-.18s-.3-.32-.35-.59c-.26.25-.59.44-.99.57s-.8.2-1.2.2c-.61,0-1.12-.16-1.54-.48-.42-.32-.62-.78-.62-1.36,0-.38.07-.69.2-.94.13-.25.32-.44.54-.57.23-.13.48-.23.75-.3.27-.06.58-.12.94-.16.14-.02.34-.05.61-.09.46-.06.78-.13.98-.23.2-.09.3-.29.3-.58,0-.17-.04-.31-.12-.43-.08-.11-.18-.2-.31-.26-.13-.06-.26-.1-.42-.13-.15-.02-.31-.04-.47-.04-.41,0-.73.08-.98.25-.24.17-.38.42-.42.75h-1.39c.02-.39.12-.72.28-1,.16-.27.38-.49.65-.65.27-.16.57-.28.9-.35.33-.07.68-.1,1.04-.1.32,0,.63.04.93.1.3.07.57.18.81.32s.43.34.57.57.21.51.21.83v3.25Zm-1.39-1.76c-.14.09-.3.15-.48.2-.18.04-.41.08-.69.11-.23.02-.41.05-.54.07-.35.06-.63.16-.83.32-.2.16-.31.4-.31.73,0,.15.04.27.12.38.08.11.19.19.32.25.13.06.27.11.42.13.15.03.29.04.42.04.16,0,.34-.02.52-.07s.35-.12.51-.21c.16-.1.29-.22.39-.37.1-.15.15-.33.15-.54v-1.04Z"/>
      <path class="cls-1" d="m296.07.21h1.39v8.73h-1.39V.21Z"/>
      <path class="cls-1" d="m304.27,7.53c0,.17.03.29.07.37s.13.11.26.11c.13,0,.25,0,.34-.02v.97c-.11.04-.26.08-.44.11-.18.03-.33.05-.44.05-.3,0-.54-.06-.73-.18s-.3-.32-.35-.59c-.26.25-.59.44-.99.57s-.8.2-1.2.2c-.61,0-1.12-.16-1.54-.48-.42-.32-.62-.78-.62-1.36,0-.38.07-.69.2-.94.13-.25.32-.44.54-.57.23-.13.48-.23.75-.3.27-.06.58-.12.94-.16.14-.02.34-.05.61-.09.46-.06.78-.13.98-.23.2-.09.3-.29.3-.58,0-.17-.04-.31-.12-.43-.08-.11-.18-.2-.31-.26-.13-.06-.26-.1-.42-.13-.15-.02-.31-.04-.47-.04-.41,0-.73.08-.98.25-.24.17-.38.42-.42.75h-1.39c.02-.39.12-.72.28-1,.16-.27.38-.49.65-.65.27-.16.57-.28.9-.35.33-.07.68-.1,1.04-.1.32,0,.63.04.93.1.3.07.57.18.81.32s.43.34.57.57.21.51.21.83v3.25Zm-1.39-1.76c-.14.09-.3.15-.48.2-.18.04-.41.08-.69.11-.23.02-.41.05-.54.07-.35.06-.63.16-.83.32-.2.16-.31.4-.31.73,0,.15.04.27.12.38.08.11.19.19.32.25.13.06.27.11.42.13.15.03.29.04.42.04.16,0,.34-.02.52-.07s.35-.12.51-.21c.16-.1.29-.22.39-.37.1-.15.15-.33.15-.54v-1.04Z"/>
      <path class="cls-1" d="m309.37.21h1.53v8.73h-1.53V.21Z"/>
      <path class="cls-1" d="m312.57,2.62h1.32v.93l.02.02c.21-.35.49-.62.83-.82.34-.2.72-.3,1.14-.3.7,0,1.25.19,1.64.56.4.37.59.9.59,1.59v4.34h-1.39v-3.97c0-.49-.11-.85-.31-1.08-.2-.23-.51-.34-.92-.34-.46,0-.83.16-1.11.48-.28.32-.42.71-.42,1.19v3.73h-1.39V2.62Z"/>
      <path class="cls-1" d="m318.96,2.62h1.51l1.6,4.85h.02l1.54-4.85h1.44l-2.26,6.32h-1.56l-2.3-6.32Z"/>
      <path class="cls-1" d="m327.01,6.13c0,.53.15.97.44,1.33.29.36.71.54,1.26.54.78,0,1.3-.35,1.54-1.05h1.32c-.15.68-.48,1.2-1.01,1.58s-1.14.57-1.85.57c-.97,0-1.73-.31-2.27-.92-.55-.61-.82-1.41-.82-2.41,0-.45.07-.87.21-1.28s.35-.76.62-1.07.59-.55.97-.73c.38-.17.8-.26,1.25-.26s.86.09,1.23.26.69.41.96.71c.27.3.47.65.61,1.04.14.39.21.8.21,1.22,0,.15,0,.31-.02.46h-4.64Zm3.25-.92c-.02-.46-.18-.86-.47-1.19-.29-.33-.66-.49-1.12-.49s-.86.16-1.17.48c-.31.32-.47.72-.49,1.2h3.25Z"/>
      <path class="cls-1" d="m333.77,6.91c.03.38.18.66.44.84.26.17.59.26.99.26.16,0,.31,0,.46-.03.15-.02.31-.06.45-.12.15-.06.26-.15.35-.26.09-.11.13-.25.13-.42-.02-.28-.15-.48-.42-.6s-.66-.24-1.21-.35c-.23-.05-.38-.08-.44-.1-.3-.07-.57-.14-.79-.22-.23-.08-.44-.19-.62-.33s-.34-.32-.45-.53-.17-.48-.17-.79c0-.33.08-.61.24-.84s.37-.43.63-.57.54-.25.85-.31c.31-.06.61-.09.92-.09.71,0,1.29.15,1.75.44.24.16.44.37.6.62.15.25.25.54.29.89h-1.45c-.06-.31-.2-.53-.43-.65-.23-.13-.51-.19-.86-.19-.11,0-.24,0-.37.02-.13.02-.25.05-.37.1s-.22.12-.29.2c-.08.08-.12.19-.12.32,0,.26.13.45.39.57.26.12.67.23,1.22.35.24.06.39.09.44.1.3.07.57.15.79.23.23.08.44.19.63.32.19.13.34.31.45.52.11.21.17.47.17.77,0,.36-.08.67-.24.93-.16.26-.38.48-.65.64-.27.16-.58.28-.91.36-.33.08-.67.12-1.01.12-.83,0-1.5-.19-2.02-.56-.51-.38-.77-.92-.78-1.64h1.39Z"/>
      <path class="cls-1" d="m338.43,2.62h1.05V.72h1.39v1.89h1.26v1.04h-1.26v3.37c0,.33.04.55.12.68.08.13.26.19.55.19.26,0,.46-.02.59-.05v1.08c-.07,0-.18.02-.31.04-.26.02-.46.04-.6.04-.68,0-1.14-.13-1.38-.38-.23-.25-.36-.66-.37-1.23v-3.73h-1.05v-1.04Z"/>
      <path class="cls-1" d="m343.17.21h1.39v1.32h-1.39V.21Zm0,2.41h1.39v6.32h-1.39V2.62Z"/>
      <path class="cls-1" d="m351.92,8.6c0,.94-.27,1.64-.8,2.12-.53.48-1.3.71-2.3.71-.33,0-.66-.03-.98-.1s-.61-.18-.88-.34c-.27-.16-.49-.36-.66-.62s-.27-.56-.31-.91h1.39c.08.37.25.61.51.74.26.13.59.19,1.01.19.55,0,.96-.14,1.23-.41.26-.27.4-.67.4-1.2v-.97h-.02c-.2.35-.46.62-.8.82-.34.2-.7.29-1.09.29-.48,0-.9-.09-1.26-.26s-.66-.41-.89-.71c-.23-.31-.4-.66-.51-1.06s-.17-.83-.17-1.3c0-.43.07-.84.2-1.22.13-.38.32-.71.57-1.01.25-.29.55-.52.9-.69s.75-.25,1.19-.25c.42,0,.79.09,1.12.26.33.18.58.43.75.78h.02v-.87h1.39v5.99Zm-2.32-.95c.22-.12.4-.29.53-.5.13-.21.23-.45.3-.71s.1-.53.1-.81c0-.59-.14-1.09-.42-1.49-.28-.4-.71-.6-1.28-.6-.29,0-.55.06-.76.19-.22.13-.39.3-.52.51-.13.21-.23.45-.29.7-.06.26-.09.52-.09.8s.03.53.1.78c.06.25.16.47.29.65.3.44.73.66,1.27.66.29,0,.55-.06.77-.18Z"/>
      <path class="cls-1" d="m358.62,7.53c0,.17.03.29.07.37s.13.11.26.11c.13,0,.25,0,.34-.02v.97c-.11.04-.26.08-.44.11-.18.03-.33.05-.44.05-.3,0-.54-.06-.73-.18s-.3-.32-.35-.59c-.26.25-.59.44-.99.57s-.8.2-1.2.2c-.61,0-1.12-.16-1.54-.48-.42-.32-.62-.78-.62-1.36,0-.38.07-.69.2-.94.13-.25.32-.44.54-.57.23-.13.48-.23.75-.3.27-.06.58-.12.94-.16.14-.02.34-.05.61-.09.46-.06.78-.13.98-.23.2-.09.3-.29.3-.58,0-.17-.04-.31-.12-.43-.08-.11-.18-.2-.31-.26-.13-.06-.26-.1-.42-.13-.15-.02-.31-.04-.47-.04-.41,0-.73.08-.98.25-.24.17-.38.42-.42.75h-1.39c.02-.39.12-.72.28-1,.16-.27.38-.49.65-.65.27-.16.57-.28.9-.35.33-.07.68-.1,1.04-.1.32,0,.63.04.93.1.3.07.57.18.81.32s.43.34.57.57.21.51.21.83v3.25Zm-1.39-1.76c-.14.09-.3.15-.48.2-.18.04-.41.08-.69.11-.23.02-.41.05-.54.07-.35.06-.63.16-.83.32-.2.16-.31.4-.31.73,0,.15.04.27.12.38.08.11.19.19.32.25.13.06.27.11.42.13.15.03.29.04.42.04.16,0,.34-.02.52-.07s.35-.12.51-.21c.16-.1.29-.22.39-.37.1-.15.15-.33.15-.54v-1.04Z"/>
      <path class="cls-1" d="m364.38,4.73c-.06-.38-.21-.67-.47-.87-.26-.21-.58-.31-.97-.31-.2,0-.41.03-.61.1-.2.07-.38.18-.56.35s-.31.4-.42.71c-.11.31-.16.69-.16,1.14,0,.28.03.54.1.79.06.25.17.48.3.69.13.21.31.37.52.5s.46.18.76.18c.41,0,.74-.13,1.01-.38s.43-.61.5-1.06h1.39c-.13.82-.44,1.45-.94,1.89-.5.44-1.15.65-1.96.65-.96,0-1.71-.3-2.25-.91-.54-.61-.81-1.39-.81-2.35s.27-1.81.81-2.44,1.31-.95,2.31-.95c.77,0,1.43.2,1.96.59.53.39.83.96.89,1.7h-1.39Z"/>
      <path class="cls-1" d="m366.95.21h1.39v1.32h-1.39V.21Zm0,2.41h1.39v6.32h-1.39V2.62Z"/>
      <path class="cls-1" d="m370.42,8.18c-.57-.61-.85-1.42-.85-2.41s.28-1.79.85-2.4,1.35-.92,2.34-.92,1.77.31,2.34.92.85,1.42.85,2.4-.28,1.8-.85,2.41c-.57.62-1.35.92-2.34.92s-1.77-.31-2.34-.92Zm3.13-.37c.23-.13.42-.29.56-.51s.26-.45.33-.71.11-.54.11-.83-.04-.56-.11-.82-.18-.5-.33-.71-.33-.38-.56-.51-.49-.18-.79-.18-.57.06-.79.18c-.23.12-.42.29-.56.51-.15.22-.26.45-.33.71s-.11.53-.11.82.04.56.11.83.18.5.33.71c.15.21.34.38.57.51.23.13.49.19.79.19s.57-.06.79-.19Zm-.62-7.82h1.65l-1.74,1.75h-1.01l1.1-1.75Z"/>
      <path class="cls-1" d="m377.11,2.62h1.32v.93l.02.02c.21-.35.49-.62.83-.82.34-.2.72-.3,1.14-.3.7,0,1.25.19,1.64.56.4.37.59.9.59,1.59v4.34h-1.39v-3.97c0-.49-.11-.85-.31-1.08-.2-.23-.51-.34-.92-.34-.46,0-.83.16-1.11.48-.28.32-.42.71-.42,1.19v3.73h-1.39V2.62Z"/>
      <path class="cls-1" d="m389.14,11.27c-.55-.88-.99-1.77-1.29-2.67s-.46-1.89-.46-2.96c0-.97.15-1.93.46-2.89.31-.96.74-1.87,1.3-2.74h1.14c-.5.89-.87,1.8-1.12,2.73-.25.93-.38,1.9-.38,2.9,0,2.06.5,3.94,1.5,5.63h-1.14Z"/>
      <path class="cls-1" d="m391.11.21h6.03v1.32h-4.5v2.29h3.95v1.25h-3.95v3.87h-1.53V.21Z"/>
      <path class="cls-1" d="m398.36.21h1.53v8.73h-1.53V.21Z"/>
      <path class="cls-1" d="m401.76.21h3.85c.59,0,1.08.08,1.47.25.4.17.7.39.92.65.22.27.37.56.45.86.08.31.13.62.13.94s-.04.62-.12.92c-.08.3-.23.59-.45.86s-.52.49-.92.65-.89.25-1.48.25h-2.32v3.35h-1.53V.21Zm1.53,4.13h2.24c.18,0,.36-.02.54-.07.18-.05.34-.13.5-.25.15-.11.27-.26.36-.45s.13-.41.13-.67c0-.53-.14-.9-.41-1.12-.27-.22-.64-.32-1.09-.32h-2.26v2.88Z"/>
      <path class="cls-1" d="m409.91.21h1.53v8.73h-1.53V.21Z"/>
      <path class="cls-1" d="m413.42,0c.55.89.99,1.78,1.29,2.68s.46,1.89.46,2.97c0,.97-.15,1.93-.46,2.89-.3.96-.74,1.87-1.3,2.73h-1.14c.5-.88.87-1.79,1.12-2.72s.38-1.9.38-2.9c0-2.06-.5-3.94-1.5-5.65h1.14Z"/>
      <path class="cls-1" d="m419.28,2.62h1.04v-.53c0-.38.05-.7.14-.95s.22-.45.38-.58c.16-.13.34-.23.54-.28.2-.05.43-.07.68-.07.45,0,.77.03.98.08v1.09c-.18-.05-.4-.07-.65-.07-.21,0-.38.05-.5.15s-.18.27-.18.51v.65h1.19v1.04h-1.19v5.28h-1.39V3.65h-1.04v-1.04Z"/>
      <path class="cls-1" d="m423.75,2.62h1.31v1.22h.02c.04-.17.12-.34.23-.5.11-.16.26-.31.43-.45.17-.13.36-.24.57-.32.2-.08.41-.12.61-.12.16,0,.31,0,.44.02.04,0,.07.01.09.01v1.34s-.08-.02-.13-.02c-.21-.02-.37-.04-.46-.04-.5,0-.91.19-1.23.57-.32.38-.48.91-.48,1.59v3.01h-1.39V2.62Z"/>
      <path class="cls-1" d="m428.39,8.18c-.57-.61-.85-1.42-.85-2.41s.28-1.79.85-2.4,1.35-.92,2.34-.92,1.77.31,2.34.92.85,1.42.85,2.4-.28,1.8-.85,2.41c-.57.62-1.35.92-2.34.92s-1.77-.31-2.34-.92Zm3.13-.37c.23-.13.42-.29.56-.51s.26-.45.33-.71.11-.54.11-.83-.04-.56-.11-.82-.18-.5-.33-.71-.33-.38-.56-.51-.49-.18-.79-.18-.57.06-.79.18c-.23.12-.42.29-.56.51-.15.22-.26.45-.33.71s-.11.53-.11.82.04.56.11.83.18.5.33.71c.15.21.34.38.57.51.23.13.49.19.79.19s.57-.06.79-.19Z"/>
      <path class="cls-1" d="m435.08,2.62h1.32v.88h.04c.23-.34.49-.6.79-.78.3-.18.68-.27,1.15-.27.41,0,.77.09,1.09.26.32.18.55.44.68.79.25-.34.53-.6.84-.78.32-.18.7-.27,1.14-.27.69,0,1.22.17,1.58.51.36.34.54.88.54,1.62v4.36h-1.39v-3.69c0-.29-.01-.54-.03-.73-.02-.2-.07-.36-.14-.51s-.19-.25-.35-.34c-.16-.08-.37-.12-.63-.12-.46,0-.79.14-1.01.43-.22.29-.33.71-.33,1.25v3.7h-1.39v-4.06c0-.46-.08-.79-.25-1.01s-.45-.32-.86-.32c-.38,0-.71.15-.98.44-.27.29-.4.69-.4,1.2v3.75h-1.39V2.62Z"/>
      <path class="cls-1" d="m448.48,2.62h1.05V.72h1.39v1.89h1.26v1.04h-1.26v3.37c0,.33.04.55.12.68.08.13.26.19.55.19.26,0,.46-.02.59-.05v1.08c-.07,0-.18.02-.31.04-.26.02-.46.04-.6.04-.68,0-1.14-.13-1.38-.38-.23-.25-.36-.66-.37-1.23v-3.73h-1.05v-1.04Z"/>
      <path class="cls-1" d="m453.18.21h1.39v3.24h.02c.18-.29.44-.53.78-.72s.71-.28,1.12-.28c.7,0,1.25.19,1.64.56.4.37.59.9.59,1.59v4.34h-1.39v-3.97c0-.49-.11-.85-.31-1.08-.2-.23-.51-.34-.92-.34-.46,0-.83.16-1.11.48-.28.32-.42.71-.42,1.19v3.73h-1.39V.21Z"/>
      <path class="cls-1" d="m461.28,6.13c0,.53.15.97.44,1.33.29.36.71.54,1.26.54.78,0,1.3-.35,1.54-1.05h1.32c-.15.68-.48,1.2-1.01,1.58s-1.14.57-1.85.57c-.97,0-1.73-.31-2.27-.92-.55-.61-.82-1.41-.82-2.41,0-.45.07-.87.21-1.28s.35-.76.62-1.07.59-.55.97-.73c.38-.17.8-.26,1.25-.26s.86.09,1.23.26.69.41.96.71c.27.3.47.65.61,1.04.14.39.21.8.21,1.22,0,.15,0,.31-.02.46h-4.64Zm3.25-.92c-.02-.46-.18-.86-.47-1.19-.29-.33-.66-.49-1.12-.49s-.86.16-1.17.48c-.31.32-.47.72-.49,1.2h3.25Z"/>
      <path class="cls-1" d="m476.03.35c.52.24.96.56,1.33.98.36.42.64.91.83,1.46s.29,1.14.29,1.77-.1,1.22-.29,1.77-.47,1.04-.83,1.46c-.36.42-.8.75-1.33.98s-1.1.35-1.74.35-1.21-.12-1.74-.35-.96-.56-1.33-.98c-.36-.42-.64-.91-.83-1.46s-.29-1.14-.29-1.77.1-1.22.29-1.77.47-1.04.83-1.46c.36-.42.8-.75,1.33-.98s1.1-.35,1.74-.35,1.21.12,1.74.35Zm-2.91,1.17c-.34.18-.62.43-.83.74s-.38.66-.48,1.06c-.11.4-.16.81-.16,1.25s.05.85.16,1.24c.11.39.27.75.48,1.06.22.31.49.56.83.75.34.18.73.27,1.18.27s.84-.09,1.18-.27c.34-.18.62-.43.83-.75.22-.31.38-.67.48-1.06.11-.4.16-.81.16-1.24s-.05-.84-.16-1.24c-.11-.39-.27-.75-.48-1.06-.22-.31-.49-.56-.83-.75s-.73-.27-1.18-.27-.84.09-1.18.27Z"/>
      <path class="cls-1" d="m479.05,2.62h1.04v-.53c0-.38.05-.7.14-.95s.22-.45.38-.58c.16-.13.34-.23.54-.28.2-.05.43-.07.68-.07.45,0,.77.03.98.08v1.09c-.18-.05-.4-.07-.65-.07-.21,0-.38.05-.5.15s-.18.27-.18.51v.65h1.19v1.04h-1.19v5.28h-1.39V3.65h-1.04v-1.04Z"/>
      <path class="cls-1" d="m482.68,2.62h1.04v-.53c0-.38.05-.7.14-.95s.22-.45.38-.58c.16-.13.34-.23.54-.28.2-.05.43-.07.68-.07.45,0,.77.03.98.08v1.09c-.18-.05-.4-.07-.65-.07-.21,0-.38.05-.5.15s-.18.27-.18.51v.65h1.19v1.04h-1.19v5.28h-1.39V3.65h-1.04v-1.04Z"/>
      <path class="cls-1" d="m487.19.21h1.39v1.32h-1.39V.21Zm0,2.41h1.39v6.32h-1.39V2.62Z"/>
      <path class="cls-1" d="m494.36,4.73c-.06-.38-.21-.67-.47-.87-.26-.21-.58-.31-.97-.31-.2,0-.41.03-.61.1-.2.07-.38.18-.56.35s-.31.4-.42.71c-.11.31-.16.69-.16,1.14,0,.28.03.54.1.79.06.25.17.48.3.69.13.21.31.37.52.5s.46.18.76.18c.41,0,.74-.13,1.01-.38s.43-.61.5-1.06h1.39c-.13.82-.44,1.45-.94,1.89-.5.44-1.15.65-1.96.65-.96,0-1.71-.3-2.25-.91-.54-.61-.81-1.39-.81-2.35s.27-1.81.81-2.44,1.31-.95,2.31-.95c.77,0,1.43.2,1.96.59.53.39.83.96.89,1.7h-1.39Z"/>
      <path class="cls-1" d="m497.98,6.13c0,.53.15.97.44,1.33.29.36.71.54,1.26.54.78,0,1.3-.35,1.54-1.05h1.32c-.15.68-.48,1.2-1.01,1.58s-1.14.57-1.85.57c-.97,0-1.73-.31-2.27-.92-.55-.61-.82-1.41-.82-2.41,0-.45.07-.87.21-1.28s.35-.76.62-1.07.59-.55.97-.73c.38-.17.8-.26,1.25-.26s.86.09,1.23.26.69.41.96.71c.27.3.47.65.61,1.04.14.39.21.8.21,1.22,0,.15,0,.31-.02.46h-4.64Zm3.25-.92c-.02-.46-.18-.86-.47-1.19-.29-.33-.66-.49-1.12-.49s-.86.16-1.17.48c-.31.32-.47.72-.49,1.2h3.25Z"/>
      <path class="cls-1" d="m507.64,8.18c-.57-.61-.85-1.42-.85-2.41s.28-1.79.85-2.4,1.35-.92,2.34-.92,1.77.31,2.34.92.85,1.42.85,2.4-.28,1.8-.85,2.41c-.57.62-1.35.92-2.34.92s-1.77-.31-2.34-.92Zm3.13-.37c.23-.13.42-.29.56-.51s.26-.45.33-.71.11-.54.11-.83-.04-.56-.11-.82-.18-.5-.33-.71-.33-.38-.56-.51-.49-.18-.79-.18-.57.06-.79.18c-.23.12-.42.29-.56.51-.15.22-.26.45-.33.71s-.11.53-.11.82.04.56.11.83.18.5.33.71c.15.21.34.38.57.51.23.13.49.19.79.19s.57-.06.79-.19Z"/>
      <path class="cls-1" d="m513.71,2.62h1.04v-.53c0-.38.05-.7.14-.95s.22-.45.38-.58c.16-.13.34-.23.54-.28.2-.05.43-.07.68-.07.45,0,.77.03.98.08v1.09c-.18-.05-.4-.07-.65-.07-.21,0-.38.05-.5.15s-.18.27-.18.51v.65h1.19v1.04h-1.19v5.28h-1.39V3.65h-1.04v-1.04Z"/>
      <path class="cls-1" d="m520.94,2.62h1.05V.72h1.39v1.89h1.26v1.04h-1.26v3.37c0,.33.04.55.12.68.08.13.26.19.55.19.26,0,.46-.02.59-.05v1.08c-.07,0-.18.02-.31.04-.26.02-.46.04-.6.04-.68,0-1.14-.13-1.38-.38-.23-.25-.36-.66-.37-1.23v-3.73h-1.05v-1.04Z"/>
      <path class="cls-1" d="m525.65.21h1.39v3.24h.02c.18-.29.44-.53.78-.72s.71-.28,1.12-.28c.7,0,1.25.19,1.64.56.4.37.59.9.59,1.59v4.34h-1.39v-3.97c0-.49-.11-.85-.31-1.08-.2-.23-.51-.34-.92-.34-.46,0-.83.16-1.11.48-.28.32-.42.71-.42,1.19v3.73h-1.39V.21Z"/>
      <path class="cls-1" d="m533.75,6.13c0,.53.15.97.44,1.33.29.36.71.54,1.26.54.78,0,1.3-.35,1.54-1.05h1.32c-.15.68-.48,1.2-1.01,1.58s-1.14.57-1.85.57c-.97,0-1.73-.31-2.27-.92-.55-.61-.82-1.41-.82-2.41,0-.45.07-.87.21-1.28s.35-.76.62-1.07.59-.55.97-.73c.38-.17.8-.26,1.25-.26s.86.09,1.23.26.69.41.96.71c.27.3.47.65.61,1.04.14.39.21.8.21,1.22,0,.15,0,.31-.02.46h-4.64Zm3.25-.92c-.02-.46-.18-.86-.47-1.19-.29-.33-.66-.49-1.12-.49s-.86.16-1.17.48c-.31.32-.47.72-.49,1.2h3.25Z"/>
      <path class="cls-1" d="m543.05.21h3.62c.65,0,1.22.11,1.71.34.49.22.89.53,1.21.93.32.4.55.86.7,1.39.15.53.23,1.1.23,1.71s-.08,1.18-.23,1.71c-.15.53-.38.99-.7,1.39-.32.4-.72.7-1.21.93-.49.22-1.06.34-1.71.34h-3.62V.21Zm1.53,7.48h1.5c.58,0,1.06-.08,1.44-.23.38-.16.68-.37.89-.65s.36-.6.45-.97c.08-.37.13-.79.13-1.26s-.04-.89-.13-1.26c-.09-.37-.23-.69-.45-.97-.21-.28-.51-.49-.89-.65-.38-.15-.86-.23-1.44-.23h-1.5v6.23Z"/>
      <path class="cls-1" d="m552.77,6.13c0,.53.15.97.44,1.33.29.36.71.54,1.26.54.78,0,1.3-.35,1.54-1.05h1.32c-.15.68-.48,1.2-1.01,1.58s-1.14.57-1.85.57c-.97,0-1.73-.31-2.27-.92-.55-.61-.82-1.41-.82-2.41,0-.45.07-.87.21-1.28s.35-.76.62-1.07.59-.55.97-.73c.38-.17.8-.26,1.25-.26s.86.09,1.23.26.69.41.96.71c.27.3.47.65.61,1.04.14.39.21.8.21,1.22,0,.15,0,.31-.02.46h-4.64Zm3.25-.92c-.02-.46-.18-.86-.47-1.19-.29-.33-.66-.49-1.12-.49s-.86.16-1.17.48c-.31.32-.47.72-.49,1.2h3.25Z"/>
      <path class="cls-1" d="m563.77,7.53c0,.17.03.29.07.37s.13.11.26.11c.13,0,.25,0,.34-.02v.97c-.11.04-.26.08-.44.11-.18.03-.33.05-.44.05-.3,0-.54-.06-.73-.18s-.3-.32-.35-.59c-.26.25-.59.44-.99.57s-.8.2-1.2.2c-.61,0-1.12-.16-1.54-.48-.42-.32-.62-.78-.62-1.36,0-.38.07-.69.2-.94.13-.25.32-.44.54-.57.23-.13.48-.23.75-.3.27-.06.58-.12.94-.16.14-.02.34-.05.61-.09.46-.06.78-.13.98-.23.2-.09.3-.29.3-.58,0-.17-.04-.31-.12-.43-.08-.11-.18-.2-.31-.26-.13-.06-.26-.1-.42-.13-.15-.02-.31-.04-.47-.04-.41,0-.73.08-.98.25-.24.17-.38.42-.42.75h-1.39c.02-.39.12-.72.28-1,.16-.27.38-.49.65-.65.27-.16.57-.28.9-.35.33-.07.68-.1,1.04-.1.32,0,.63.04.93.1.3.07.57.18.81.32s.43.34.57.57.21.51.21.83v3.25Zm-1.39-1.76c-.14.09-.3.15-.48.2-.18.04-.41.08-.69.11-.23.02-.41.05-.54.07-.35.06-.63.16-.83.32-.2.16-.31.4-.31.73,0,.15.04.27.12.38.08.11.19.19.32.25.13.06.27.11.42.13.15.03.29.04.42.04.16,0,.34-.02.52-.07s.35-.12.51-.21c.16-.1.29-.22.39-.37.1-.15.15-.33.15-.54v-1.04Z"/>
      <path class="cls-1" d="m565.27,2.62h1.32v.93l.02.02c.21-.35.49-.62.83-.82.34-.2.72-.3,1.14-.3.7,0,1.25.19,1.64.56.4.37.59.9.59,1.59v4.34h-1.39v-3.97c0-.49-.11-.85-.31-1.08-.2-.23-.51-.34-.92-.34-.46,0-.83.16-1.11.48-.28.32-.42.71-.42,1.19v3.73h-1.39V2.62Z"/>
      <path class="cls-1" d="m576.24,8.18c-.57-.61-.85-1.42-.85-2.41s.28-1.79.85-2.4,1.35-.92,2.34-.92,1.77.31,2.34.92.85,1.42.85,2.4-.28,1.8-.85,2.41c-.57.62-1.35.92-2.34.92s-1.77-.31-2.34-.92Zm3.13-.37c.23-.13.42-.29.56-.51s.26-.45.33-.71.11-.54.11-.83-.04-.56-.11-.82-.18-.5-.33-.71-.33-.38-.56-.51-.49-.18-.79-.18-.57.06-.79.18c-.23.12-.42.29-.56.51-.15.22-.26.45-.33.71s-.11.53-.11.82.04.56.11.83.18.5.33.71c.15.21.34.38.57.51.23.13.49.19.79.19s.57-.06.79-.19Z"/>
      <path class="cls-1" d="m582.31,2.62h1.04v-.53c0-.38.05-.7.14-.95s.22-.45.38-.58c.16-.13.34-.23.54-.28.2-.05.43-.07.68-.07.45,0,.77.03.98.08v1.09c-.18-.05-.4-.07-.65-.07-.21,0-.38.05-.5.15s-.18.27-.18.51v.65h1.19v1.04h-1.19v5.28h-1.39V3.65h-1.04v-1.04Z"/>
      <path class="cls-1" d="m597.98,8.93h-.98l-.23-1.03c-.4.46-.8.78-1.2.96s-.88.28-1.42.28c-.64,0-1.21-.12-1.74-.35s-.96-.56-1.33-.98c-.36-.42-.64-.91-.83-1.46s-.29-1.14-.29-1.77.1-1.22.29-1.77.47-1.04.83-1.46c.36-.42.8-.75,1.33-.98s1.1-.35,1.74-.35c.99,0,1.84.26,2.53.78s1.1,1.25,1.21,2.21h-1.49c-.07-.55-.32-.97-.75-1.28s-.92-.46-1.5-.46c-.45,0-.84.09-1.18.27s-.62.43-.83.74-.38.66-.48,1.06-.16.81-.16,1.25.05.85.16,1.24c.11.39.27.75.48,1.06.22.31.49.56.83.75.34.18.73.27,1.18.27.78,0,1.38-.21,1.8-.64.42-.43.63-1.01.64-1.75h-2.32v-1.16h3.71v4.59Z"/>
      <path class="cls-1" d="m599.45,2.62h1.31v1.22h.02c.04-.17.12-.34.23-.5.11-.16.26-.31.43-.45.17-.13.36-.24.57-.32.2-.08.41-.12.61-.12.16,0,.31,0,.44.02.04,0,.07.01.09.01v1.34s-.08-.02-.13-.02c-.21-.02-.37-.04-.46-.04-.5,0-.91.19-1.23.57-.32.38-.48.91-.48,1.59v3.01h-1.39V2.62Z"/>
      <path class="cls-1" d="m609.04,7.53c0,.17.03.29.07.37s.13.11.26.11c.13,0,.25,0,.34-.02v.97c-.11.04-.26.08-.44.11-.18.03-.33.05-.44.05-.3,0-.54-.06-.73-.18s-.3-.32-.35-.59c-.26.25-.59.44-.99.57s-.8.2-1.2.2c-.61,0-1.12-.16-1.54-.48-.42-.32-.62-.78-.62-1.36,0-.38.07-.69.2-.94.13-.25.32-.44.54-.57.23-.13.48-.23.75-.3.27-.06.58-.12.94-.16.14-.02.34-.05.61-.09.46-.06.78-.13.98-.23.2-.09.3-.29.3-.58,0-.17-.04-.31-.12-.43-.08-.11-.18-.2-.31-.26-.13-.06-.26-.1-.42-.13-.15-.02-.31-.04-.47-.04-.41,0-.73.08-.98.25-.24.17-.38.42-.42.75h-1.39c.02-.39.12-.72.28-1,.16-.27.38-.49.65-.65.27-.16.57-.28.9-.35.33-.07.68-.1,1.04-.1.32,0,.63.04.93.1.3.07.57.18.81.32s.43.34.57.57.21.51.21.83v3.25Zm-1.39-1.76c-.14.09-.3.15-.48.2-.18.04-.41.08-.69.11-.23.02-.41.05-.54.07-.35.06-.63.16-.83.32-.2.16-.31.4-.31.73,0,.15.04.27.12.38.08.11.19.19.32.25.13.06.27.11.42.13.15.03.29.04.42.04.16,0,.34-.02.52-.07s.35-.12.51-.21c.16-.1.29-.22.39-.37.1-.15.15-.33.15-.54v-1.04Z"/>
      <path class="cls-1" d="m616.5,8.93h-1.32v-.86h-.02c-.17.34-.43.6-.79.77-.35.17-.74.26-1.17.26-.95,0-1.68-.31-2.19-.94-.51-.63-.76-1.44-.76-2.43,0-.55.08-1.04.23-1.45.15-.42.35-.76.61-1.03.26-.27.55-.47.87-.61.33-.13.67-.2,1.03-.2.43,0,.84.08,1.22.25.38.17.68.41.88.74h.02V.21h1.39v8.73Zm-4.42-1.56c.3.42.73.64,1.3.64.3,0,.56-.06.79-.19.22-.13.41-.29.56-.51s.25-.45.32-.71.1-.54.1-.83c0-.69-.16-1.24-.47-1.63-.31-.39-.74-.59-1.28-.59-.31,0-.58.06-.81.19-.23.13-.42.3-.56.52-.14.22-.24.47-.31.74-.07.27-.1.56-.1.85,0,.59.15,1.1.45,1.53Z"/>
      <path class="cls-1" d="m623.56,8.93h-1.37v-.88h-.02c-.17.31-.42.56-.76.76s-.68.29-1.04.29c-.81,0-1.41-.21-1.79-.62-.38-.41-.57-1.03-.57-1.86V2.62h1.39v3.87c0,.54.1.92.31,1.16.2.24.51.35.9.35.55,0,.94-.15,1.19-.46.25-.31.37-.73.37-1.26v-3.67h1.39v6.32Z"/>
      <path class="cls-1" d="m630.32,7.53c0,.17.03.29.07.37s.13.11.26.11c.13,0,.25,0,.34-.02v.97c-.11.04-.26.08-.44.11-.18.03-.33.05-.44.05-.3,0-.54-.06-.73-.18s-.3-.32-.35-.59c-.26.25-.59.44-.99.57s-.8.2-1.2.2c-.61,0-1.12-.16-1.54-.48-.42-.32-.62-.78-.62-1.36,0-.38.07-.69.2-.94.13-.25.32-.44.54-.57.23-.13.48-.23.75-.3.27-.06.58-.12.94-.16.14-.02.34-.05.61-.09.46-.06.78-.13.98-.23.2-.09.3-.29.3-.58,0-.17-.04-.31-.12-.43-.08-.11-.18-.2-.31-.26-.13-.06-.26-.1-.42-.13-.15-.02-.31-.04-.47-.04-.41,0-.73.08-.98.25-.24.17-.38.42-.42.75h-1.39c.02-.39.12-.72.28-1,.16-.27.38-.49.65-.65.27-.16.57-.28.9-.35.33-.07.68-.1,1.04-.1.32,0,.63.04.93.1.3.07.57.18.81.32s.43.34.57.57.21.51.21.83v3.25Zm-1.39-1.76c-.14.09-.3.15-.48.2-.18.04-.41.08-.69.11-.23.02-.41.05-.54.07-.35.06-.63.16-.83.32-.2.16-.31.4-.31.73,0,.15.04.27.12.38.08.11.19.19.32.25.13.06.27.11.42.13.15.03.29.04.42.04.16,0,.34-.02.52-.07s.35-.12.51-.21c.16-.1.29-.22.39-.37.1-.15.15-.33.15-.54v-1.04Z"/>
      <path class="cls-1" d="m631.19,2.62h1.05V.72h1.39v1.89h1.26v1.04h-1.26v3.37c0,.33.04.55.12.68.08.13.26.19.55.19.26,0,.46-.02.59-.05v1.08c-.07,0-.18.02-.31.04-.26.02-.46.04-.6.04-.68,0-1.14-.13-1.38-.38-.23-.25-.36-.66-.37-1.23v-3.73h-1.05v-1.04Z"/>
      <path class="cls-1" d="m636.98,6.13c0,.53.15.97.44,1.33.29.36.71.54,1.26.54.78,0,1.3-.35,1.54-1.05h1.32c-.15.68-.48,1.2-1.01,1.58s-1.14.57-1.85.57c-.97,0-1.73-.31-2.27-.92-.55-.61-.82-1.41-.82-2.41,0-.45.07-.87.21-1.28s.35-.76.62-1.07.59-.55.97-.73c.38-.17.8-.26,1.25-.26s.86.09,1.23.26.69.41.96.71c.27.3.47.65.61,1.04.14.39.21.8.21,1.22,0,.15,0,.31-.02.46h-4.64Zm3.25-.92c-.02-.46-.18-.86-.47-1.19-.29-.33-.66-.49-1.12-.49s-.86.16-1.17.48c-.31.32-.47.72-.49,1.2h3.25Z"/>
      <path class="cls-1" d="m647.28,6.03c0,.63.2,1.11.61,1.41s.94.46,1.6.46,1.09-.13,1.39-.38c.3-.26.45-.57.45-.93,0-.31-.07-.55-.2-.71-.13-.16-.31-.29-.52-.37-.26-.1-.74-.24-1.44-.42-.54-.14-.92-.24-1.16-.31-.69-.19-1.19-.48-1.48-.87-.3-.39-.45-.84-.45-1.34,0-.42.09-.8.26-1.12.17-.32.42-.59.72-.81s.65-.38,1.03-.48.77-.16,1.18-.16c.46,0,.9.06,1.3.18s.76.3,1.07.54.55.54.72.89c.17.35.26.75.26,1.18h-1.53c-.03-.54-.21-.93-.54-1.17s-.78-.37-1.34-.37c-.2,0-.38.02-.57.05-.18.04-.35.1-.51.19s-.29.21-.38.35-.14.33-.14.54c0,.29.09.53.28.71.18.18.44.32.76.41l.34.08c.37.1.71.19,1.03.28.32.08.57.15.76.2s.32.09.39.11c.55.16.96.45,1.26.87.29.42.44.87.44,1.35s-.1.88-.29,1.23c-.19.35-.45.63-.78.85-.33.22-.7.38-1.11.49-.42.11-.85.16-1.3.16-.5,0-.98-.06-1.42-.19-.44-.13-.83-.32-1.16-.57s-.59-.58-.78-.98-.29-.86-.29-1.38h1.53Z"/>
      <path class="cls-1" d="m653.37,2.62h1.05V.72h1.39v1.89h1.26v1.04h-1.26v3.37c0,.33.04.55.12.68.08.13.26.19.55.19.26,0,.46-.02.59-.05v1.08c-.07,0-.18.02-.31.04-.26.02-.46.04-.6.04-.68,0-1.14-.13-1.38-.38-.23-.25-.36-.66-.37-1.23v-3.73h-1.05v-1.04Z"/>
      <path class="cls-1" d="m663.62,8.93h-1.37v-.88h-.02c-.17.31-.42.56-.76.76s-.68.29-1.04.29c-.81,0-1.41-.21-1.79-.62-.38-.41-.57-1.03-.57-1.86V2.62h1.39v3.87c0,.54.1.92.31,1.16.2.24.51.35.9.35.55,0,.94-.15,1.19-.46.25-.31.37-.73.37-1.26v-3.67h1.39v6.32Z"/>
      <path class="cls-1" d="m671.04,8.93h-1.32v-.86h-.02c-.17.34-.43.6-.79.77-.35.17-.74.26-1.17.26-.95,0-1.68-.31-2.19-.94-.51-.63-.76-1.44-.76-2.43,0-.55.08-1.04.23-1.45.15-.42.35-.76.61-1.03.26-.27.55-.47.87-.61.33-.13.67-.2,1.03-.2.43,0,.84.08,1.22.25.38.17.68.41.88.74h.02V.21h1.39v8.73Zm-4.42-1.56c.3.42.73.64,1.3.64.3,0,.56-.06.79-.19.22-.13.41-.29.56-.51s.25-.45.32-.71.1-.54.1-.83c0-.69-.16-1.24-.47-1.63-.31-.39-.74-.59-1.28-.59-.31,0-.58.06-.81.19-.23.13-.42.3-.56.52-.14.22-.24.47-.31.74-.07.27-.1.56-.1.85,0,.59.15,1.1.45,1.53Z"/>
      <path class="cls-1" d="m672.59.21h1.39v1.32h-1.39V.21Zm0,2.41h1.39v6.32h-1.39V2.62Z"/>
      <path class="cls-1" d="m676.59,6.13c0,.53.15.97.44,1.33.29.36.71.54,1.26.54.78,0,1.3-.35,1.54-1.05h1.32c-.15.68-.48,1.2-1.01,1.58s-1.14.57-1.85.57c-.97,0-1.73-.31-2.27-.92-.55-.61-.82-1.41-.82-2.41,0-.45.07-.87.21-1.28s.35-.76.62-1.07.59-.55.97-.73c.38-.17.8-.26,1.25-.26s.86.09,1.23.26.69.41.96.71c.27.3.47.65.61,1.04.14.39.21.8.21,1.22,0,.15,0,.31-.02.46h-4.64Zm3.25-.92c-.02-.46-.18-.86-.47-1.19-.29-.33-.66-.49-1.12-.49s-.86.16-1.17.48c-.31.32-.47.72-.49,1.2h3.25Z"/>
      <path class="cls-1" d="m683.35,6.91c.03.38.18.66.44.84.26.17.59.26.99.26.16,0,.31,0,.46-.03.15-.02.31-.06.45-.12.15-.06.26-.15.35-.26.09-.11.13-.25.13-.42-.02-.28-.15-.48-.42-.6s-.66-.24-1.21-.35c-.23-.05-.38-.08-.44-.1-.3-.07-.57-.14-.79-.22-.23-.08-.44-.19-.62-.33s-.34-.32-.45-.53-.17-.48-.17-.79c0-.33.08-.61.24-.84s.37-.43.63-.57.54-.25.85-.31c.31-.06.61-.09.92-.09.71,0,1.29.15,1.75.44.24.16.44.37.6.62.15.25.25.54.29.89h-1.45c-.06-.31-.2-.53-.43-.65-.23-.13-.51-.19-.86-.19-.11,0-.24,0-.37.02-.13.02-.25.05-.37.1s-.22.12-.29.2c-.08.08-.12.19-.12.32,0,.26.13.45.39.57.26.12.67.23,1.22.35.24.06.39.09.44.1.3.07.57.15.79.23.23.08.44.19.63.32.19.13.34.31.45.52.11.21.17.47.17.77,0,.36-.08.67-.24.93-.16.26-.38.48-.65.64-.27.16-.58.28-.91.36-.33.08-.67.12-1.01.12-.83,0-1.5-.19-2.02-.56-.51-.38-.77-.92-.78-1.64h1.39Z"/>
      <path class="cls-1" d="m697.33,7.53c0,.17.03.29.07.37s.13.11.26.11c.13,0,.25,0,.34-.02v.97c-.11.04-.26.08-.44.11-.18.03-.33.05-.44.05-.3,0-.54-.06-.73-.18s-.3-.32-.35-.59c-.26.25-.59.44-.99.57s-.8.2-1.2.2c-.61,0-1.12-.16-1.54-.48-.42-.32-.62-.78-.62-1.36,0-.38.07-.69.2-.94.13-.25.32-.44.54-.57.23-.13.48-.23.75-.3.27-.06.58-.12.94-.16.14-.02.34-.05.61-.09.46-.06.78-.13.98-.23.2-.09.3-.29.3-.58,0-.17-.04-.31-.12-.43-.08-.11-.18-.2-.31-.26-.13-.06-.26-.1-.42-.13-.15-.02-.31-.04-.47-.04-.41,0-.73.08-.98.25-.24.17-.38.42-.42.75h-1.39c.02-.39.12-.72.28-1,.16-.27.38-.49.65-.65.27-.16.57-.28.9-.35.33-.07.68-.1,1.04-.1.32,0,.63.04.93.1.3.07.57.18.81.32s.43.34.57.57.21.51.21.83v3.25Zm-1.39-1.76c-.14.09-.3.15-.48.2-.18.04-.41.08-.69.11-.23.02-.41.05-.54.07-.35.06-.63.16-.83.32-.2.16-.31.4-.31.73,0,.15.04.27.12.38.08.11.19.19.32.25.13.06.27.11.42.13.15.03.29.04.42.04.16,0,.34-.02.52-.07s.35-.12.51-.21c.16-.1.29-.22.39-.37.1-.15.15-.33.15-.54v-1.04Z"/>
      <path class="cls-1" d="m698.83,2.62h1.32v.93l.02.02c.21-.35.49-.62.83-.82.34-.2.72-.3,1.14-.3.7,0,1.25.19,1.64.56.4.37.59.9.59,1.59v4.34h-1.39v-3.97c0-.49-.11-.85-.31-1.08-.2-.23-.51-.34-.92-.34-.46,0-.83.16-1.11.48-.28.32-.42.71-.42,1.19v3.73h-1.39V2.62Z"/>
      <path class="cls-1" d="m711.8,8.93h-1.32v-.86h-.02c-.17.34-.43.6-.79.77-.35.17-.74.26-1.17.26-.95,0-1.68-.31-2.19-.94-.51-.63-.76-1.44-.76-2.43,0-.55.08-1.04.23-1.45.15-.42.35-.76.61-1.03.26-.27.55-.47.87-.61.33-.13.67-.2,1.03-.2.43,0,.84.08,1.22.25.38.17.68.41.88.74h.02V.21h1.39v8.73Zm-4.42-1.56c.3.42.73.64,1.3.64.3,0,.56-.06.79-.19.22-.13.41-.29.56-.51s.25-.45.32-.71.1-.54.1-.83c0-.69-.16-1.24-.47-1.63-.31-.39-.74-.59-1.28-.59-.31,0-.58.06-.81.19-.23.13-.42.3-.56.52-.14.22-.24.47-.31.74-.07.27-.1.56-.1.85,0,.59.15,1.1.45,1.53Z"/>
      <path class="cls-1" d="m716.9.21h4.17c.95,0,1.66.21,2.15.62.49.41.73.99.73,1.74,0,.39-.06.73-.17,1-.11.28-.25.5-.41.66-.16.16-.31.28-.45.35s-.28.13-.41.18v.02c.15.02.3.07.45.13.14.07.28.17.41.31.13.14.24.33.32.56.08.23.12.51.12.84,0,.54.04,1.01.12,1.42.08.41.2.7.35.87h-1.64c-.1-.16-.16-.34-.19-.54-.03-.2-.04-.45-.04-.74,0-.84-.12-1.43-.36-1.78s-.7-.53-1.38-.53h-2.25v3.59h-1.53V.21Zm1.53,3.97h2.51c.99,0,1.49-.46,1.49-1.39,0-.27-.04-.49-.12-.67-.08-.17-.19-.31-.33-.41s-.3-.17-.48-.2c-.18-.04-.37-.06-.59-.06h-2.48v2.73Z"/>
      <path class="cls-1" d="m726.4,6.13c0,.53.15.97.44,1.33.29.36.71.54,1.26.54.78,0,1.3-.35,1.54-1.05h1.32c-.15.68-.48,1.2-1.01,1.58s-1.14.57-1.85.57c-.97,0-1.73-.31-2.27-.92-.55-.61-.82-1.41-.82-2.41,0-.45.07-.87.21-1.28s.35-.76.62-1.07.59-.55.97-.73c.38-.17.8-.26,1.25-.26s.86.09,1.23.26.69.41.96.71c.27.3.47.65.61,1.04.14.39.21.8.21,1.22,0,.15,0,.31-.02.46h-4.64Zm3.25-.92c-.02-.46-.18-.86-.47-1.19-.29-.33-.66-.49-1.12-.49s-.86.16-1.17.48c-.31.32-.47.72-.49,1.2h3.25Z"/>
      <path class="cls-1" d="m733.16,6.91c.03.38.18.66.44.84.26.17.59.26.99.26.16,0,.31,0,.46-.03.15-.02.31-.06.45-.12.15-.06.26-.15.35-.26.09-.11.13-.25.13-.42-.02-.28-.15-.48-.42-.6s-.66-.24-1.21-.35c-.23-.05-.38-.08-.44-.1-.3-.07-.57-.14-.79-.22-.23-.08-.44-.19-.62-.33s-.34-.32-.45-.53-.17-.48-.17-.79c0-.33.08-.61.24-.84s.37-.43.63-.57.54-.25.85-.31c.31-.06.61-.09.92-.09.71,0,1.29.15,1.75.44.24.16.44.37.6.62.15.25.25.54.29.89h-1.45c-.06-.31-.2-.53-.43-.65-.23-.13-.51-.19-.86-.19-.11,0-.24,0-.37.02-.13.02-.25.05-.37.1s-.22.12-.29.2c-.08.08-.12.19-.12.32,0,.26.13.45.39.57.26.12.67.23,1.22.35.24.06.39.09.44.1.3.07.57.15.79.23.23.08.44.19.63.32.19.13.34.31.45.52.11.21.17.47.17.77,0,.36-.08.67-.24.93-.16.26-.38.48-.65.64-.27.16-.58.28-.91.36-.33.08-.67.12-1.01.12-.83,0-1.5-.19-2.02-.56-.51-.38-.77-.92-.78-1.64h1.39Z"/>
      <path class="cls-1" d="m739.54,6.13c0,.53.15.97.44,1.33.29.36.71.54,1.26.54.78,0,1.3-.35,1.54-1.05h1.32c-.15.68-.48,1.2-1.01,1.58s-1.14.57-1.85.57c-.97,0-1.73-.31-2.27-.92-.55-.61-.82-1.41-.82-2.41,0-.45.07-.87.21-1.28s.35-.76.62-1.07.59-.55.97-.73c.38-.17.8-.26,1.25-.26s.86.09,1.23.26.69.41.96.71c.27.3.47.65.61,1.04.14.39.21.8.21,1.22,0,.15,0,.31-.02.46h-4.64Zm3.25-.92c-.02-.46-.18-.86-.47-1.19-.29-.33-.66-.49-1.12-.49s-.86.16-1.17.48c-.31.32-.47.72-.49,1.2h3.25Z"/>
      <path class="cls-1" d="m750.54,7.53c0,.17.03.29.07.37s.13.11.26.11c.13,0,.25,0,.34-.02v.97c-.11.04-.26.08-.44.11-.18.03-.33.05-.44.05-.3,0-.54-.06-.73-.18s-.3-.32-.35-.59c-.26.25-.59.44-.99.57s-.8.2-1.2.2c-.61,0-1.12-.16-1.54-.48-.42-.32-.62-.78-.62-1.36,0-.38.07-.69.2-.94.13-.25.32-.44.54-.57.23-.13.48-.23.75-.3.27-.06.58-.12.94-.16.14-.02.34-.05.61-.09.46-.06.78-.13.98-.23.2-.09.3-.29.3-.58,0-.17-.04-.31-.12-.43-.08-.11-.18-.2-.31-.26-.13-.06-.26-.1-.42-.13-.15-.02-.31-.04-.47-.04-.41,0-.73.08-.98.25-.24.17-.38.42-.42.75h-1.39c.02-.39.12-.72.28-1,.16-.27.38-.49.65-.65.27-.16.57-.28.9-.35.33-.07.68-.1,1.04-.1.32,0,.63.04.93.1.3.07.57.18.81.32s.43.34.57.57.21.51.21.83v3.25Zm-1.39-1.76c-.14.09-.3.15-.48.2-.18.04-.41.08-.69.11-.23.02-.41.05-.54.07-.35.06-.63.16-.83.32-.2.16-.31.4-.31.73,0,.15.04.27.12.38.08.11.19.19.32.25.13.06.27.11.42.13.15.03.29.04.42.04.16,0,.34-.02.52-.07s.35-.12.51-.21c.16-.1.29-.22.39-.37.1-.15.15-.33.15-.54v-1.04Z"/>
      <path class="cls-1" d="m752.04,2.62h1.31v1.22h.02c.04-.17.12-.34.23-.5.11-.16.26-.31.43-.45.17-.13.36-.24.57-.32.2-.08.41-.12.61-.12.16,0,.31,0,.44.02.04,0,.07.01.09.01v1.34s-.08-.02-.13-.02c-.21-.02-.37-.04-.46-.04-.5,0-.91.19-1.23.57-.32.38-.48.91-.48,1.59v3.01h-1.39V2.62Z"/>
      <path class="cls-1" d="m760.39,4.73c-.06-.38-.21-.67-.47-.87-.26-.21-.58-.31-.97-.31-.2,0-.41.03-.61.1-.2.07-.38.18-.56.35s-.31.4-.42.71c-.11.31-.16.69-.16,1.14,0,.28.03.54.1.79.06.25.17.48.3.69.13.21.31.37.52.5s.46.18.76.18c.41,0,.74-.13,1.01-.38s.43-.61.5-1.06h1.39c-.13.82-.44,1.45-.94,1.89-.5.44-1.15.65-1.96.65-.96,0-1.71-.3-2.25-.91-.54-.61-.81-1.39-.81-2.35s.27-1.81.81-2.44,1.31-.95,2.31-.95c.77,0,1.43.2,1.96.59.53.39.83.96.89,1.7h-1.39Z"/>
      <path class="cls-1" d="m762.92.21h1.39v3.24h.02c.18-.29.44-.53.78-.72s.71-.28,1.12-.28c.7,0,1.25.19,1.64.56.4.37.59.9.59,1.59v4.34h-1.39v-3.97c0-.49-.11-.85-.31-1.08-.2-.23-.51-.34-.92-.34-.46,0-.83.16-1.11.48-.28.32-.42.71-.42,1.19v3.73h-1.39V.21Z"/>
      <path class="cls-1" d="m778.62,7.53c0,.17.03.29.07.37s.13.11.26.11c.13,0,.25,0,.34-.02v.97c-.11.04-.26.08-.44.11-.18.03-.33.05-.44.05-.3,0-.54-.06-.73-.18s-.3-.32-.35-.59c-.26.25-.59.44-.99.57s-.8.2-1.2.2c-.61,0-1.12-.16-1.54-.48-.42-.32-.62-.78-.62-1.36,0-.38.07-.69.2-.94.13-.25.32-.44.54-.57.23-.13.48-.23.75-.3.27-.06.58-.12.94-.16.14-.02.34-.05.61-.09.46-.06.78-.13.98-.23.2-.09.3-.29.3-.58,0-.17-.04-.31-.12-.43-.08-.11-.18-.2-.31-.26-.13-.06-.26-.1-.42-.13-.15-.02-.31-.04-.47-.04-.41,0-.73.08-.98.25-.24.17-.38.42-.42.75h-1.39c.02-.39.12-.72.28-1,.16-.27.38-.49.65-.65.27-.16.57-.28.9-.35.33-.07.68-.1,1.04-.1.32,0,.63.04.93.1.3.07.57.18.81.32s.43.34.57.57.21.51.21.83v3.25Zm-1.39-1.76c-.14.09-.3.15-.48.2-.18.04-.41.08-.69.11-.23.02-.41.05-.54.07-.35.06-.63.16-.83.32-.2.16-.31.4-.31.73,0,.15.04.27.12.38.08.11.19.19.32.25.13.06.27.11.42.13.15.03.29.04.42.04.16,0,.34-.02.52-.07s.35-.12.51-.21c.16-.1.29-.22.39-.37.1-.15.15-.33.15-.54v-1.04Z"/>
      <path class="cls-1" d="m779.49,2.62h1.05V.72h1.39v1.89h1.26v1.04h-1.26v3.37c0,.33.04.55.12.68.08.13.26.19.55.19.26,0,.46-.02.59-.05v1.08c-.07,0-.18.02-.31.04-.26.02-.46.04-.6.04-.68,0-1.14-.13-1.38-.38-.23-.25-.36-.66-.37-1.23v-3.73h-1.05v-1.04Z"/>
      <path class="cls-1" d="m786.95,2.62h1.05V.72h1.39v1.89h1.26v1.04h-1.26v3.37c0,.33.04.55.12.68.08.13.26.19.55.19.26,0,.46-.02.59-.05v1.08c-.07,0-.18.02-.31.04-.26.02-.46.04-.6.04-.68,0-1.14-.13-1.38-.38-.23-.25-.36-.66-.37-1.23v-3.73h-1.05v-1.04Z"/>
      <path class="cls-1" d="m791.66.21h1.39v3.24h.02c.18-.29.44-.53.78-.72s.71-.28,1.12-.28c.7,0,1.25.19,1.64.56.4.37.59.9.59,1.59v4.34h-1.39v-3.97c0-.49-.11-.85-.31-1.08-.2-.23-.51-.34-.92-.34-.46,0-.83.16-1.11.48-.28.32-.42.71-.42,1.19v3.73h-1.39V.21Z"/>
      <path class="cls-1" d="m799.76,6.13c0,.53.15.97.44,1.33.29.36.71.54,1.26.54.78,0,1.3-.35,1.54-1.05h1.32c-.15.68-.48,1.2-1.01,1.58s-1.14.57-1.85.57c-.97,0-1.73-.31-2.27-.92-.55-.61-.82-1.41-.82-2.41,0-.45.07-.87.21-1.28s.35-.76.62-1.07.59-.55.97-.73c.38-.17.8-.26,1.25-.26s.86.09,1.23.26.69.41.96.71c.27.3.47.65.61,1.04.14.39.21.8.21,1.22,0,.15,0,.31-.02.46h-4.64Zm3.25-.92c-.02-.46-.18-.86-.47-1.19-.29-.33-.66-.49-1.12-.49s-.86.16-1.17.48c-.31.32-.47.72-.49,1.2h3.25Z"/>
      <path class="cls-1" d="m808.96.21h1.53v5.08c0,.38.02.71.06.98.04.27.12.52.25.76s.34.43.62.57.66.22,1.12.22.84-.07,1.12-.22.49-.34.62-.57.21-.49.25-.76c.04-.27.05-.59.05-.98V.21h1.53v5.58c0,1.09-.32,1.92-.96,2.49s-1.51.86-2.62.86-1.98-.29-2.62-.86-.96-1.4-.96-2.49V.21Z"/>
      <path class="cls-1" d="m817.69,2.62h1.32v.93l.02.02c.21-.35.49-.62.83-.82.34-.2.72-.3,1.14-.3.7,0,1.25.19,1.64.56.4.37.59.9.59,1.59v4.34h-1.39v-3.97c0-.49-.11-.85-.31-1.08-.2-.23-.51-.34-.92-.34-.46,0-.83.16-1.11.48-.28.32-.42.71-.42,1.19v3.73h-1.39V2.62Z"/>
      <path class="cls-1" d="m824.74.21h1.39v1.32h-1.39V.21Zm0,2.41h1.39v6.32h-1.39V2.62Z"/>
      <path class="cls-1" d="m827.03,2.62h1.51l1.6,4.85h.02l1.54-4.85h1.44l-2.26,6.32h-1.56l-2.3-6.32Z"/>
      <path class="cls-1" d="m835.08,6.13c0,.53.15.97.44,1.33.29.36.71.54,1.26.54.78,0,1.3-.35,1.54-1.05h1.32c-.15.68-.48,1.2-1.01,1.58s-1.14.57-1.85.57c-.97,0-1.73-.31-2.27-.92-.55-.61-.82-1.41-.82-2.41,0-.45.07-.87.21-1.28s.35-.76.62-1.07.59-.55.97-.73c.38-.17.8-.26,1.25-.26s.86.09,1.23.26.69.41.96.71c.27.3.47.65.61,1.04.14.39.21.8.21,1.22,0,.15,0,.31-.02.46h-4.64Zm3.25-.92c-.02-.46-.18-.86-.47-1.19-.29-.33-.66-.49-1.12-.49s-.86.16-1.17.48c-.31.32-.47.72-.49,1.2h3.25Z"/>
      <path class="cls-1" d="m840.79,2.62h1.31v1.22h.02c.04-.17.12-.34.23-.5.11-.16.26-.31.43-.45.17-.13.36-.24.57-.32.2-.08.41-.12.61-.12.16,0,.31,0,.44.02.04,0,.07.01.09.01v1.34s-.08-.02-.13-.02c-.21-.02-.37-.04-.46-.04-.5,0-.91.19-1.23.57-.32.38-.48.91-.48,1.59v3.01h-1.39V2.62Z"/>
      <path class="cls-1" d="m846.14,6.91c.03.38.18.66.44.84.26.17.59.26.99.26.16,0,.31,0,.46-.03.15-.02.31-.06.45-.12.15-.06.26-.15.35-.26.09-.11.13-.25.13-.42-.02-.28-.15-.48-.42-.6s-.66-.24-1.21-.35c-.23-.05-.38-.08-.44-.1-.3-.07-.57-.14-.79-.22-.23-.08-.44-.19-.62-.33s-.34-.32-.45-.53-.17-.48-.17-.79c0-.33.08-.61.24-.84s.37-.43.63-.57.54-.25.85-.31c.31-.06.61-.09.92-.09.71,0,1.29.15,1.75.44.24.16.44.37.6.62.15.25.25.54.29.89h-1.45c-.06-.31-.2-.53-.43-.65-.23-.13-.51-.19-.86-.19-.11,0-.24,0-.37.02-.13.02-.25.05-.37.1s-.22.12-.29.2c-.08.08-.12.19-.12.32,0,.26.13.45.39.57.26.12.67.23,1.22.35.24.06.39.09.44.1.3.07.57.15.79.23.23.08.44.19.63.32.19.13.34.31.45.52.11.21.17.47.17.77,0,.36-.08.67-.24.93-.16.26-.38.48-.65.64-.27.16-.58.28-.91.36-.33.08-.67.12-1.01.12-.83,0-1.5-.19-2.02-.56-.51-.38-.77-.92-.78-1.64h1.39Z"/>
      <path class="cls-1" d="m851.47.21h1.39v1.32h-1.39V.21Zm0,2.41h1.39v6.32h-1.39V2.62Z"/>
      <path class="cls-1" d="m853.74,2.62h1.05V.72h1.39v1.89h1.26v1.04h-1.26v3.37c0,.33.04.55.12.68.08.13.26.19.55.19.26,0,.46-.02.59-.05v1.08c-.07,0-.18.02-.31.04-.26.02-.46.04-.6.04-.68,0-1.14-.13-1.38-.38-.23-.25-.36-.66-.37-1.23v-3.73h-1.05v-1.04Z"/>
      <path class="cls-1" d="m857.75,2.62h1.53l1.65,4.72h.02l1.6-4.72h1.45l-2.46,6.66s-.04.1-.06.17c-.15.36-.27.64-.37.84-.1.2-.22.4-.38.57-.16.18-.35.32-.58.42s-.52.15-.85.15-.65-.02-.96-.07v-1.17l.13.02c.23.04.4.06.53.06.3,0,.52-.07.64-.21.13-.14.24-.36.34-.67l.16-.49-2.39-6.29Z"/>
      <path class="cls-1" d="m868.74,8.18c-.57-.61-.85-1.42-.85-2.41s.28-1.79.85-2.4,1.35-.92,2.34-.92,1.77.31,2.34.92.85,1.42.85,2.4-.28,1.8-.85,2.41c-.57.62-1.35.92-2.34.92s-1.77-.31-2.34-.92Zm3.13-.37c.23-.13.42-.29.56-.51s.26-.45.33-.71.11-.54.11-.83-.04-.56-.11-.82-.18-.5-.33-.71-.33-.38-.56-.51-.49-.18-.79-.18-.57.06-.79.18c-.23.12-.42.29-.56.51-.15.22-.26.45-.33.71s-.11.53-.11.82.04.56.11.83.18.5.33.71c.15.21.34.38.57.51.23.13.49.19.79.19s.57-.06.79-.19Z"/>
      <path class="cls-1" d="m874.81,2.62h1.04v-.53c0-.38.05-.7.14-.95s.22-.45.38-.58c.16-.13.34-.23.54-.28.2-.05.43-.07.68-.07.45,0,.77.03.98.08v1.09c-.18-.05-.4-.07-.65-.07-.21,0-.38.05-.5.15s-.18.27-.18.51v.65h1.19v1.04h-1.19v5.28h-1.39V3.65h-1.04v-1.04Z"/>
      <path class="cls-1" d="m882.87.21h3.85c.59,0,1.08.08,1.47.25.4.17.7.39.92.65.22.27.37.56.45.86.08.31.13.62.13.94s-.04.62-.12.92c-.08.3-.23.59-.45.86s-.52.49-.92.65-.89.25-1.48.25h-2.32v3.35h-1.53V.21Zm1.53,4.13h2.24c.18,0,.36-.02.54-.07.18-.05.34-.13.5-.25.15-.11.27-.26.36-.45s.13-.41.13-.67c0-.53-.14-.9-.41-1.12-.27-.22-.64-.32-1.09-.32h-2.26v2.88Z"/>
      <path class="cls-1" d="m896.38,8.93h-1.37v-.88h-.02c-.17.31-.42.56-.76.76s-.68.29-1.04.29c-.81,0-1.41-.21-1.79-.62-.38-.41-.57-1.03-.57-1.86V2.62h1.39v3.87c0,.54.1.92.31,1.16.2.24.51.35.9.35.55,0,.94-.15,1.19-.46.25-.31.37-.73.37-1.26v-3.67h1.39v6.32Z"/>
      <path class="cls-1" d="m898.93,6.13c0,.53.15.97.44,1.33.29.36.71.54,1.26.54.78,0,1.3-.35,1.54-1.05h1.32c-.15.68-.48,1.2-1.01,1.58s-1.14.57-1.85.57c-.97,0-1.73-.31-2.27-.92-.55-.61-.82-1.41-.82-2.41,0-.45.07-.87.21-1.28s.35-.76.62-1.07.59-.55.97-.73c.38-.17.8-.26,1.25-.26s.86.09,1.23.26.69.41.96.71c.27.3.47.65.61,1.04.14.39.21.8.21,1.22,0,.15,0,.31-.02.46h-4.64Zm3.25-.92c-.02-.46-.18-.86-.47-1.19-.29-.33-.66-.49-1.12-.49s-.86.16-1.17.48c-.31.32-.47.72-.49,1.2h3.25Z"/>
      <path class="cls-1" d="m904.64,2.62h1.31v1.22h.02c.04-.17.12-.34.23-.5.11-.16.26-.31.43-.45.17-.13.36-.24.57-.32.2-.08.41-.12.61-.12.16,0,.31,0,.44.02.04,0,.07.01.09.01v1.34s-.08-.02-.13-.02c-.21-.02-.37-.04-.46-.04-.5,0-.91.19-1.23.57-.32.38-.48.91-.48,1.59v3.01h-1.39V2.62Z"/>
      <path class="cls-1" d="m908.3,2.62h1.05V.72h1.39v1.89h1.26v1.04h-1.26v3.37c0,.33.04.55.12.68.08.13.26.19.55.19.26,0,.46-.02.59-.05v1.08c-.07,0-.18.02-.31.04-.26.02-.46.04-.6.04-.68,0-1.14-.13-1.38-.38-.23-.25-.36-.66-.37-1.23v-3.73h-1.05v-1.04Z"/>
      <path class="cls-1" d="m913.57,8.18c-.57-.61-.85-1.42-.85-2.41s.28-1.79.85-2.4,1.35-.92,2.34-.92,1.77.31,2.34.92.85,1.42.85,2.4-.28,1.8-.85,2.41c-.57.62-1.35.92-2.34.92s-1.77-.31-2.34-.92Zm3.13-.37c.23-.13.42-.29.56-.51s.26-.45.33-.71.11-.54.11-.83-.04-.56-.11-.82-.18-.5-.33-.71-.33-.38-.56-.51-.49-.18-.79-.18-.57.06-.79.18c-.23.12-.42.29-.56.51-.15.22-.26.45-.33.71s-.11.53-.11.82.04.56.11.83.18.5.33.71c.15.21.34.38.57.51.23.13.49.19.79.19s.57-.06.79-.19Z"/>
      <path class="cls-1" d="m923.85.21h4.17c.95,0,1.66.21,2.15.62.49.41.73.99.73,1.74,0,.39-.06.73-.17,1-.11.28-.25.5-.41.66-.16.16-.31.28-.45.35s-.28.13-.41.18v.02c.15.02.3.07.45.13.14.07.28.17.41.31.13.14.24.33.32.56.08.23.12.51.12.84,0,.54.04,1.01.12,1.42.08.41.2.7.35.87h-1.64c-.1-.16-.16-.34-.19-.54-.03-.2-.04-.45-.04-.74,0-.84-.12-1.43-.36-1.78s-.7-.53-1.38-.53h-2.25v3.59h-1.53V.21Zm1.53,3.97h2.51c.99,0,1.49-.46,1.49-1.39,0-.27-.04-.49-.12-.67-.08-.17-.19-.31-.33-.41s-.3-.17-.48-.2c-.18-.04-.37-.06-.59-.06h-2.48v2.73Z"/>
      <path class="cls-1" d="m932.29.21h1.39v1.32h-1.39V.21Zm0,2.41h1.39v6.32h-1.39V2.62Z"/>
      <path class="cls-1" d="m939.47,4.73c-.06-.38-.21-.67-.47-.87-.26-.21-.58-.31-.97-.31-.2,0-.41.03-.61.1-.2.07-.38.18-.56.35s-.31.4-.42.71c-.11.31-.16.69-.16,1.14,0,.28.03.54.1.79.06.25.17.48.3.69.13.21.31.37.52.5s.46.18.76.18c.41,0,.74-.13,1.01-.38s.43-.61.5-1.06h1.39c-.13.82-.44,1.45-.94,1.89-.5.44-1.15.65-1.96.65-.96,0-1.71-.3-2.25-.91-.54-.61-.81-1.39-.81-2.35s.27-1.81.81-2.44,1.31-.95,2.31-.95c.77,0,1.43.2,1.96.59.53.39.83.96.89,1.7h-1.39Z"/>
      <path class="cls-1" d="m942.55,8.18c-.57-.61-.85-1.42-.85-2.41s.28-1.79.85-2.4,1.35-.92,2.34-.92,1.77.31,2.34.92.85,1.42.85,2.4-.28,1.8-.85,2.41c-.57.62-1.35.92-2.34.92s-1.77-.31-2.34-.92Zm3.13-.37c.23-.13.42-.29.56-.51s.26-.45.33-.71.11-.54.11-.83-.04-.56-.11-.82-.18-.5-.33-.71-.33-.38-.56-.51-.49-.18-.79-.18-.57.06-.79.18c-.23.12-.42.29-.56.51-.15.22-.26.45-.33.71s-.11.53-.11.82.04.56.11.83.18.5.33.71c.15.21.34.38.57.51.23.13.49.19.79.19s.57-.06.79-.19Z"/>
      <path class="cls-1" d="m949.35,7.28h1.7v1.65c0,.5-.16.92-.46,1.26-.3.35-.7.57-1.18.67v-.75c.25-.07.45-.21.59-.43s.21-.47.21-.76h-.84v-1.65Z"/>
      <path class="cls-1" d="m956.24.21h4.17c.95,0,1.66.21,2.15.62.49.41.73.99.73,1.74,0,.39-.06.73-.17,1-.11.28-.25.5-.41.66-.16.16-.31.28-.45.35s-.28.13-.41.18v.02c.15.02.3.07.45.13.14.07.28.17.41.31.13.14.24.33.32.56.08.23.12.51.12.84,0,.54.04,1.01.12,1.42.08.41.2.7.35.87h-1.64c-.1-.16-.16-.34-.19-.54-.03-.2-.04-.45-.04-.74,0-.84-.12-1.43-.36-1.78s-.7-.53-1.38-.53h-2.25v3.59h-1.53V.21Zm1.53,3.97h2.51c.99,0,1.49-.46,1.49-1.39,0-.27-.04-.49-.12-.67-.08-.17-.19-.31-.33-.41s-.3-.17-.48-.2c-.18-.04-.37-.06-.59-.06h-2.48v2.73Z"/>
      <path class="cls-1" d="m965.56,0h1.65l-1.74,1.75h-1.01l1.1-1.75Zm-.88,8.93V2.62h1.39v6.32h-1.39Z"/>
      <path class="cls-1" d="m968.14,8.18c-.57-.61-.85-1.42-.85-2.41s.28-1.79.85-2.4,1.35-.92,2.34-.92,1.77.31,2.34.92.85,1.42.85,2.4-.28,1.8-.85,2.41c-.57.62-1.35.92-2.34.92s-1.77-.31-2.34-.92Zm3.13-.37c.23-.13.42-.29.56-.51s.26-.45.33-.71.11-.54.11-.83-.04-.56-.11-.82-.18-.5-.33-.71-.33-.38-.56-.51-.49-.18-.79-.18-.57.06-.79.18c-.23.12-.42.29-.56.51-.15.22-.26.45-.33.71s-.11.53-.11.82.04.56.11.83.18.5.33.71c.15.21.34.38.57.51.23.13.49.19.79.19s.57-.06.79-.19Z"/>
      <path class="cls-1" d="m978.43.21h3.85c.59,0,1.08.08,1.47.25.4.17.7.39.92.65.22.27.37.56.45.86.08.31.13.62.13.94s-.04.62-.12.92c-.08.3-.23.59-.45.86s-.52.49-.92.65-.89.25-1.48.25h-2.32v3.35h-1.53V.21Zm1.53,4.13h2.24c.18,0,.36-.02.54-.07.18-.05.34-.13.5-.25.15-.11.27-.26.36-.45s.13-.41.13-.67c0-.53-.14-.9-.41-1.12-.27-.22-.64-.32-1.09-.32h-2.26v2.88Z"/>
      <path class="cls-1" d="m986.42.21h1.39v1.32h-1.39V.21Zm0,2.41h1.39v6.32h-1.39V2.62Z"/>
      <path class="cls-1" d="m990.42,6.13c0,.53.15.97.44,1.33.29.36.71.54,1.26.54.78,0,1.3-.35,1.54-1.05h1.32c-.15.68-.48,1.2-1.01,1.58s-1.14.57-1.85.57c-.97,0-1.73-.31-2.27-.92-.55-.61-.82-1.41-.82-2.41,0-.45.07-.87.21-1.28s.35-.76.62-1.07.59-.55.97-.73c.38-.17.8-.26,1.25-.26s.86.09,1.23.26.69.41.96.71c.27.3.47.65.61,1.04.14.39.21.8.21,1.22,0,.15,0,.31-.02.46h-4.64Zm3.25-.92c-.02-.46-.18-.86-.47-1.19-.29-.33-.66-.49-1.12-.49s-.86.16-1.17.48c-.31.32-.47.72-.49,1.2h3.25Z"/>
      <path class="cls-1" d="m1002.08,8.93h-1.32v-.86h-.02c-.17.34-.43.6-.79.77-.35.17-.74.26-1.17.26-.95,0-1.68-.31-2.19-.94-.51-.63-.76-1.44-.76-2.43,0-.55.08-1.04.23-1.45.15-.42.35-.76.61-1.03.26-.27.55-.47.87-.61.33-.13.67-.2,1.03-.2.43,0,.84.08,1.22.25.38.17.68.41.88.74h.02V.21h1.39v8.73Zm-4.42-1.56c.3.42.73.64,1.3.64.3,0,.56-.06.79-.19.22-.13.41-.29.56-.51s.25-.45.32-.71.1-.54.1-.83c0-.69-.16-1.24-.47-1.63-.31-.39-.74-.59-1.28-.59-.31,0-.58.06-.81.19-.23.13-.42.3-.56.52-.14.22-.24.47-.31.74-.07.27-.1.56-.1.85,0,.59.15,1.1.45,1.53Z"/>
      <path class="cls-1" d="m1003.59,2.62h1.31v1.22h.02c.04-.17.12-.34.23-.5.11-.16.26-.31.43-.45.17-.13.36-.24.57-.32.2-.08.41-.12.61-.12.16,0,.31,0,.44.02.04,0,.07.01.09.01v1.34s-.08-.02-.13-.02c-.21-.02-.37-.04-.46-.04-.5,0-.91.19-1.23.57-.32.38-.48.91-.48,1.59v3.01h-1.39V2.62Z"/>
      <path class="cls-1" d="m1013.18,7.53c0,.17.03.29.07.37s.13.11.26.11c.13,0,.25,0,.34-.02v.97c-.11.04-.26.08-.44.11-.18.03-.33.05-.44.05-.3,0-.54-.06-.73-.18s-.3-.32-.35-.59c-.26.25-.59.44-.99.57s-.8.2-1.2.2c-.61,0-1.12-.16-1.54-.48-.42-.32-.62-.78-.62-1.36,0-.38.07-.69.2-.94.13-.25.32-.44.54-.57.23-.13.48-.23.75-.3.27-.06.58-.12.94-.16.14-.02.34-.05.61-.09.46-.06.78-.13.98-.23.2-.09.3-.29.3-.58,0-.17-.04-.31-.12-.43-.08-.11-.18-.2-.31-.26-.13-.06-.26-.1-.42-.13-.15-.02-.31-.04-.47-.04-.41,0-.73.08-.98.25-.24.17-.38.42-.42.75h-1.39c.02-.39.12-.72.28-1,.16-.27.38-.49.65-.65.27-.16.57-.28.9-.35.33-.07.68-.1,1.04-.1.32,0,.63.04.93.1.3.07.57.18.81.32s.43.34.57.57.21.51.21.83v3.25Zm-1.39-1.76c-.14.09-.3.15-.48.2-.18.04-.41.08-.69.11-.23.02-.41.05-.54.07-.35.06-.63.16-.83.32-.2.16-.31.4-.31.73,0,.15.04.27.12.38.08.11.19.19.32.25.13.06.27.11.42.13.15.03.29.04.42.04.16,0,.34-.02.52-.07s.35-.12.51-.21c.16-.1.29-.22.39-.37.1-.15.15-.33.15-.54v-1.04Z"/>
      <path class="cls-1" d="m1015.74,6.91c.03.38.18.66.44.84.26.17.59.26.99.26.16,0,.31,0,.46-.03.15-.02.31-.06.45-.12.15-.06.26-.15.35-.26.09-.11.13-.25.13-.42-.02-.28-.15-.48-.42-.6s-.66-.24-1.21-.35c-.23-.05-.38-.08-.44-.1-.3-.07-.57-.14-.79-.22-.23-.08-.44-.19-.62-.33s-.34-.32-.45-.53-.17-.48-.17-.79c0-.33.08-.61.24-.84s.37-.43.63-.57.54-.25.85-.31c.31-.06.61-.09.92-.09.71,0,1.29.15,1.75.44.24.16.44.37.6.62.15.25.25.54.29.89h-1.45c-.06-.31-.2-.53-.43-.65-.23-.13-.51-.19-.86-.19-.11,0-.24,0-.37.02-.13.02-.25.05-.37.1s-.22.12-.29.2c-.08.08-.12.19-.12.32,0,.26.13.45.39.57.26.12.67.23,1.22.35.24.06.39.09.44.1.3.07.57.15.79.23.23.08.44.19.63.32.19.13.34.31.45.52.11.21.17.47.17.77,0,.36-.08.67-.24.93-.16.26-.38.48-.65.64-.27.16-.58.28-.91.36-.33.08-.67.12-1.01.12-.83,0-1.5-.19-2.02-.56-.51-.38-.77-.92-.78-1.64h1.39Z"/>
      <path class="cls-1" d="m1030.51,2.98c-.14-.54-.38-.96-.74-1.27s-.83-.46-1.44-.46c-.45,0-.84.09-1.18.27-.34.18-.62.43-.83.74s-.38.66-.48,1.06c-.11.4-.16.81-.16,1.25s.05.85.16,1.24c.11.39.27.75.48,1.06.22.31.49.56.83.75.34.18.73.27,1.18.27.65,0,1.17-.21,1.55-.64.38-.43.61-.98.67-1.64h1.49c-.03.52-.15,1-.34,1.43-.19.43-.45.8-.78,1.12-.33.31-.71.56-1.16.73s-.93.26-1.45.26c-.63,0-1.21-.12-1.74-.35s-.96-.56-1.33-.98c-.36-.42-.64-.91-.83-1.46s-.29-1.14-.29-1.77.1-1.22.29-1.77.47-1.04.83-1.46c.36-.42.8-.75,1.33-.98s1.1-.35,1.74-.35c1.01,0,1.85.27,2.52.79.34.26.62.57.82.94.2.37.33.78.37,1.25h-1.53Z"/>
      <path class="cls-1" d="m1038.54,7.53c0,.17.03.29.07.37s.13.11.26.11c.13,0,.25,0,.34-.02v.97c-.11.04-.26.08-.44.11-.18.03-.33.05-.44.05-.3,0-.54-.06-.73-.18s-.3-.32-.35-.59c-.26.25-.59.44-.99.57s-.8.2-1.2.2c-.61,0-1.12-.16-1.54-.48-.42-.32-.62-.78-.62-1.36,0-.38.07-.69.2-.94.13-.25.32-.44.54-.57.23-.13.48-.23.75-.3.27-.06.58-.12.94-.16.14-.02.34-.05.61-.09.46-.06.78-.13.98-.23.2-.09.3-.29.3-.58,0-.17-.04-.31-.12-.43-.08-.11-.18-.2-.31-.26-.13-.06-.26-.1-.42-.13-.15-.02-.31-.04-.47-.04-.41,0-.73.08-.98.25-.24.17-.38.42-.42.75h-1.39c.02-.39.12-.72.28-1,.16-.27.38-.49.65-.65.27-.16.57-.28.9-.35.33-.07.68-.1,1.04-.1.32,0,.63.04.93.1.3.07.57.18.81.32s.43.34.57.57.21.51.21.83v3.25Zm-1.39-1.76c-.14.09-.3.15-.48.2-.18.04-.41.08-.69.11-.23.02-.41.05-.54.07-.35.06-.63.16-.83.32-.2.16-.31.4-.31.73,0,.15.04.27.12.38.08.11.19.19.32.25.13.06.27.11.42.13.15.03.29.04.42.04.16,0,.34-.02.52-.07s.35-.12.51-.21c.16-.1.29-.22.39-.37.1-.15.15-.33.15-.54v-1.04Z"/>
      <path class="cls-1" d="m1040.04,2.62h1.32v.88h.04c.23-.34.49-.6.79-.78.3-.18.68-.27,1.15-.27.41,0,.77.09,1.09.26.32.18.55.44.68.79.25-.34.53-.6.84-.78.32-.18.7-.27,1.14-.27.69,0,1.22.17,1.58.51.36.34.54.88.54,1.62v4.36h-1.39v-3.69c0-.29-.01-.54-.03-.73-.02-.2-.07-.36-.14-.51s-.19-.25-.35-.34c-.16-.08-.37-.12-.63-.12-.46,0-.79.14-1.01.43-.22.29-.33.71-.33,1.25v3.7h-1.39v-4.06c0-.46-.08-.79-.25-1.01s-.45-.32-.86-.32c-.38,0-.71.15-.98.44-.27.29-.4.69-.4,1.2v3.75h-1.39V2.62Z"/>
      <path class="cls-1" d="m1050.71,2.62h1.32v.86h.02c.19-.35.45-.61.8-.78.35-.17.73-.25,1.15-.25.95,0,1.68.32,2.19.95.51.63.76,1.44.76,2.41,0,.43-.06.85-.17,1.24-.11.39-.28.75-.5,1.06-.22.31-.51.55-.86.73-.35.18-.75.27-1.2.27s-.84-.08-1.22-.24c-.38-.16-.68-.41-.89-.75h-.02v3.15h-1.39V2.62Zm4.4,1.58c-.31-.44-.74-.65-1.28-.65s-1.01.2-1.31.6c-.31.4-.46.95-.46,1.64,0,.65.16,1.19.48,1.6.32.42.75.62,1.3.62.3,0,.57-.06.79-.18.23-.12.41-.29.55-.5s.24-.45.31-.71.1-.54.1-.83c0-.62-.16-1.15-.46-1.58Z"/>
      <path class="cls-1" d="m1063.69,8.93h-1.37v-.88h-.02c-.17.31-.42.56-.76.76s-.68.29-1.04.29c-.81,0-1.41-.21-1.79-.62-.38-.41-.57-1.03-.57-1.86V2.62h1.39v3.87c0,.54.1.92.31,1.16.2.24.51.35.9.35.55,0,.94-.15,1.19-.46.25-.31.37-.73.37-1.26v-3.67h1.39v6.32Z"/>
      <path class="cls-1" d="m1066.21,6.91c.03.38.18.66.44.84.26.17.59.26.99.26.16,0,.31,0,.46-.03.15-.02.31-.06.45-.12.15-.06.26-.15.35-.26.09-.11.13-.25.13-.42-.02-.28-.15-.48-.42-.6s-.66-.24-1.21-.35c-.23-.05-.38-.08-.44-.1-.3-.07-.57-.14-.79-.22-.23-.08-.44-.19-.62-.33s-.34-.32-.45-.53-.17-.48-.17-.79c0-.33.08-.61.24-.84s.37-.43.63-.57.54-.25.85-.31c.31-.06.61-.09.92-.09.71,0,1.29.15,1.75.44.24.16.44.37.6.62.15.25.25.54.29.89h-1.45c-.06-.31-.2-.53-.43-.65-.23-.13-.51-.19-.86-.19-.11,0-.24,0-.37.02-.13.02-.25.05-.37.1s-.22.12-.29.2c-.08.08-.12.19-.12.32,0,.26.13.45.39.57.26.12.67.23,1.22.35.24.06.39.09.44.1.3.07.57.15.79.23.23.08.44.19.63.32.19.13.34.31.45.52.11.21.17.47.17.77,0,.36-.08.67-.24.93-.16.26-.38.48-.65.64-.27.16-.58.28-.91.36-.33.08-.67.12-1.01.12-.83,0-1.5-.19-2.02-.56-.51-.38-.77-.92-.78-1.64h1.39Z"/>
      <path class="cls-1" d="m1071.61,7.28h1.7v1.65h-1.7v-1.65Z"/>
    </g>
  </g>
</svg>