<?xml version="1.0" encoding="UTF-8"?>
<svg id="Layer_2" data-name="Layer 2" xmlns="http://www.w3.org/2000/svg" viewBox="0 0 374 14.74">
  <defs>
    <style>
      .cls-1 {
        fill: #c2b59b;
      }

      .cls-1, .cls-2, .cls-3 {
        stroke-width: 0px;
      }

      .cls-4 {
        fill: #333;
        font-family: Helvetica, Helvetica;
        font-size: 11px;
      }

      .cls-3 {
        fill: red;
      }
    </style>
  </defs>
  <g id="Layer_1-2" data-name="Layer 1">
    <path class="cls-3" d="m28.25,2.45v9.5H.75V2.45h27.5m.75-.75H0v11h29V1.7h0Z"/>
    <text class="cls-4" transform="translate(36.19 9.45)"><tspan x="0" y="0">Site Limit</tspan></text>
    <rect class="cls-2" x="91" y="1.7" width="29" height="11"/>
    <text class="cls-4" transform="translate(127.19 9.45)"><tspan x="0" y="0">Built</tspan></text>
    <rect class="cls-1" x="161" y="1.7" width="29" height="11"/>
    <text class="cls-4" transform="translate(197.19 9.45)"><tspan x="0" y="0">Demolished</tspan></text>
    <path class="cls-2" d="m295.38,13.07h-1.38v-.75h.62v-.62h.75v1.38Zm-3.38,0h-2v-.75h2v.75Zm-4,0h-2v-.75h2v.75Zm-4,0h-2v-.75h2v.75Zm-4,0h-2v-.75h2v.75Zm-4,0h-2v-.75h2v.75Zm-4,0h-2v-.75h2v.75Zm-4,0h-2v-.75h2v.75Zm-1.62-2.38h-.75v-2h.75v2Zm29-1h-.75v-2h.75v2Zm-29-3h-.75v-2h.75v2Zm29-1h-.75v-2h.75v2Zm-29-3h-.75v-1.38h1.38v.75h-.62v.62Zm28.62-.62h-2v-.75h2v.75Zm-4,0h-2v-.75h2v.75Zm-4,0h-2v-.75h2v.75Zm-4,0h-2v-.75h2v.75Zm-4,0h-2v-.75h2v.75Zm-4,0h-2v-.75h2v.75Zm-4,0h-2v-.75h2v.75Z"/>
    <text class="cls-4" transform="translate(302.19 9.45)"><tspan x="0" y="0">Unbuilt</tspan></text>
  </g>
</svg>