<?xml version="1.0" encoding="UTF-8"?>
<svg id="Layer_2" data-name="Layer 2" xmlns="http://www.w3.org/2000/svg" viewBox="0 0 49.36 45.15">
  <defs>
    <style>
      .cls-1 {
        fill: #e4d6db;
      }

      .cls-1, .cls-2, .cls-3, .cls-4, .cls-5 {
        stroke-width: 0px;
      }

      .cls-2 {
        fill: #e07a7f;
      }

      .cls-3 {
        fill: #b26f83;
      }

      .cls-4 {
        fill: #69597c;
      }

      .cls-5 {
        fill: #edb394;
      }
    </style>
  </defs>
  <g id="logo_aacupr">
    <g>
      <path class="cls-5" d="m44.1,1.95c-3.29,2.18-5.26,5.83-5.26,9.78v23.67h10.51V11.73c0-3.95-1.96-7.6-5.26-9.78Z"/>
      <path class="cls-2" d="m31.15,1.97c-2.82,1.87-4.7,4.85-5.15,8.2l-.02.14c-.02.12-.03.25-.04.37-.01.12-.02.24-.03.36,0,.07,0,.13,0,.2,0,.15-.01.31-.01.46v.06s0,23.65,0,23.65h10.51V11.75c0-3.95-1.96-7.6-5.26-9.78Z"/>
      <path class="cls-1" d="m43.72,1.7c-1.83-1.11-3.93-1.7-6.09-1.7s-4.27.59-6.1,1.71c3.33,2.27,5.31,6,5.31,10.04v23.65h1.59V11.73c0-4.03,1.97-7.75,5.29-10.03Z"/>
      <path class="cls-4" d="m5.26,1.95C1.96,4.13,0,7.78,0,11.73v23.67h10.51V11.73c0-3.95-1.96-7.6-5.26-9.78Z"/>
      <path class="cls-3" d="m23.45,11.23c0-.07,0-.13-.01-.2,0-.12-.02-.24-.03-.36-.01-.12-.02-.24-.04-.37l-.02-.14c-.45-3.34-2.33-6.32-5.15-8.2-3.29,2.18-5.26,5.83-5.26,9.78v23.65h10.51V11.7c0-.16,0-.32-.01-.47Z"/>
      <path class="cls-1" d="m17.83,1.71c-1.84-1.12-3.94-1.71-6.1-1.71s-4.25.59-6.09,1.7c3.32,2.27,5.29,6,5.29,10.03v23.67h1.59V11.75c0-4.04,1.98-7.77,5.31-10.04Z"/>
      <path class="cls-1" d="m30.78,1.71c-1.84-1.12-3.94-1.71-6.1-1.71s-4.25.59-6.09,1.7c3.32,2.27,5.29,6,5.29,10.03v23.67h1.59V11.75c0-4.04,1.98-7.77,5.31-10.04Z"/>
      <g>
        <path class="cls-3" d="m4.29,45.1l-.42-1.22H1.47l-.42,1.22H.07l2.23-6.09h.74l2.23,6.09h-.98Zm-1.6-4.71l-.95,2.7h1.87l-.92-2.7Z"/>
        <path class="cls-3" d="m13.43,45.1l-.42-1.22h-2.4l-.42,1.22h-.98l2.23-6.09h.74l2.23,6.09h-.98Zm-1.6-4.71l-.95,2.7h1.87l-.92-2.7Z"/>
        <path class="cls-3" d="m20.45,45.15c-.63,0-1.18-.23-1.6-.65-.6-.6-.59-1.27-.59-2.45s0-1.85.59-2.45c.42-.42.97-.65,1.6-.65,1.12,0,1.96.66,2.17,1.87h-.94c-.14-.62-.55-1.04-1.23-1.04-.36,0-.68.14-.9.37-.3.33-.37.68-.37,1.9s.07,1.57.37,1.9c.22.23.54.37.9.37.68,0,1.09-.43,1.24-1.04h.93c-.21,1.22-1.07,1.87-2.17,1.87Z"/>
        <path class="cls-3" d="m29.18,45.15c-1.24,0-2.18-.85-2.18-2.1v-4.04h.92v3.99c0,.81.5,1.32,1.26,1.32s1.27-.5,1.27-1.32v-3.99h.92v4.04c0,1.26-.95,2.1-2.19,2.1Z"/>
        <path class="cls-3" d="m38.39,42.71h-1.38v2.39h-.92v-6.09h2.31c1.19,0,1.95.79,1.95,1.85s-.76,1.85-1.95,1.85Zm-.05-2.86h-1.33v2.03h1.33c.64,0,1.08-.37,1.08-1.01s-.44-1.02-1.08-1.02Z"/>
        <path class="cls-3" d="m48.08,45.1l-1.28-2.57h-1.15v2.57h-.92v-6.09h2.36c1.15,0,1.89.74,1.89,1.78,0,.87-.53,1.43-1.21,1.62l1.4,2.69h-1.08Zm-1.07-5.26h-1.37v1.91h1.37c.62,0,1.03-.35,1.03-.95s-.42-.96-1.03-.96Z"/>
      </g>
    </g>
  </g>
</svg>