<?xml version="1.0" encoding="UTF-8"?>
<svg id="Layer_2" data-name="Layer 2" xmlns="http://www.w3.org/2000/svg" xmlns:xlink="http://www.w3.org/1999/xlink" viewBox="0 0 177.01 70.41">
  <defs>
    <style>
      .cls-1 {
        fill: url(#linear-gradient);
      }

      .cls-1, .cls-2 {
        stroke-width: 0px;
      }

      .cls-2 {
        fill: #fff;
      }
    </style>
    <linearGradient id="linear-gradient" x1="0" y1="-13.83" x2="177.01" y2="-13.83" gradientTransform="translate(0 49.04)" gradientUnits="userSpaceOnUse">
      <stop offset="0" stop-color="#d93433"/>
      <stop offset=".3" stop-color="#d82f38"/>
      <stop offset=".69" stop-color="#d62248"/>
      <stop offset="1" stop-color="#d4145a"/>
    </linearGradient>
  </defs>
  <g id="logo_sitios">
    <g>
      <rect class="cls-1" width="177.01" height="70.41" transform="translate(177.01 70.41) rotate(180)"/>
      <g>
        <path class="cls-2" d="m65.81,41.05v-5.87h.92c18.77.53,33.78,15.55,34.31,34.31v.92s-5.86,0-5.86,0h0v-.86c-.5-15.58-12.93-28.01-28.5-28.5h-.86Z"/>
        <path class="cls-2" d="m65.81,52.8v-5.88h.73c12.41.41,22.34,10.35,22.75,22.76v.74s-5.86,0-5.86,0h-.01v-.66c-.39-9.23-7.72-16.56-16.95-16.94h-.66Z"/>
        <path class="cls-2" d="m65.81,35.08c.05,0,.1.04.1.1v5.87c0,.05-.04.1-.1.1s-.1-.04-.1-.1v-5.87c0-.05.04-.1.1-.1Z"/>
        <path class="cls-2" d="m65.91,64.3v5.87h-.92c-18.77-.53-33.78-15.55-34.31-34.31v-.92s5.86,0,5.86,0h0v.86c.5,15.58,12.93,28.01,28.5,28.5h.86Z"/>
        <path class="cls-2" d="m65.91,52.54v5.88h-.73c-12.41-.41-22.34-10.35-22.75-22.76v-.74s5.86,0,5.86,0h.01v.66c.39,9.23,7.72,16.56,16.95,16.94h.66Z"/>
        <path class="cls-2" d="m65.81,5.87V0h.92c18.77.53,33.78,15.55,34.31,34.31v.92s-5.86,0-5.86,0h0v-.86c-.5-15.58-12.93-28.01-28.5-28.5h-.86Z"/>
        <path class="cls-2" d="m65.81,17.62v-5.88h.73c12.41.41,22.34,10.35,22.75,22.76v.74s-5.86,0-5.86,0h-.01v-.66c-.39-9.23-7.72-16.56-16.95-16.94h-.66Z"/>
      </g>
    </g>
  </g>
</svg>