<?xml version="1.0" encoding="UTF-8"?>
<svg id="Layer_2" data-name="Layer 2" xmlns="http://www.w3.org/2000/svg" viewBox="0 0 454.07 56.66">
  <defs>
    <style>
      .cls-1 {
        fill: #2d2d2d;
        stroke-width: 0px;
      }

      .cls-2 {
        fill: none;
        stroke: #2d2d2d;
        stroke-miterlimit: 10;
      }
    </style>
  </defs>
  <g id="sitios_text">
    <g>
      <g>
        <path class="cls-1" d="m5.42,50.1c0,.43.07.81.2,1.16.18.48.5.81.97,1s1,.28,1.61.28c.25,0,.5-.02.75-.07.25-.05.5-.13.73-.25.23-.11.41-.28.55-.49.14-.21.21-.48.21-.79,0-.23-.06-.42-.17-.58-.12-.16-.31-.3-.58-.44-.27-.14-.64-.28-1.11-.43s-1.11-.34-1.93-.57l-.29-.07c-.95-.28-1.71-.52-2.28-.73-.57-.21-1.11-.49-1.64-.85-.53-.36-.95-.83-1.27-1.39-.32-.57-.48-1.25-.48-2.05,0-.97.19-1.83.58-2.57.38-.75.91-1.36,1.58-1.83.66-.48,1.42-.83,2.26-1.06.84-.23,1.74-.34,2.67-.34,1,0,1.93.1,2.78.31s1.62.53,2.29.98c.67.45,1.21,1.05,1.61,1.79s.62,1.62.65,2.66h-5.12v-.12c.02-.07.03-.11.03-.12,0-.48-.22-.86-.67-1.16-.21-.15-.46-.26-.74-.33-.28-.07-.57-.11-.86-.11-.49,0-.94.09-1.34.26-.4.17-.6.48-.6.92.03.44.33.78.89,1.02.56.24,1.44.5,2.63.8.75.18,1.28.31,1.58.39.71.2,1.34.42,1.91.67.57.25,1.08.56,1.54.95.46.39.82.87,1.1,1.44.27.57.41,1.25.41,2.02,0,1.1-.23,2.04-.69,2.82-.46.78-1.08,1.41-1.85,1.88-.77.48-1.64.82-2.6,1.03s-1.96.32-2.99.32c-.66,0-1.4-.08-2.23-.23s-1.67-.46-2.51-.9c-.85-.44-1.55-1.09-2.12-1.94-.57-.85-.86-1.94-.87-3.25h5.42Z"/>
        <path class="cls-1" d="m17.4,38.43h5.42v17.58h-5.42v-17.58Z"/>
        <path class="cls-1" d="m29.59,42.94h-4.92v-4.5h15.26v4.5h-4.92v13.07h-5.42v-13.07Z"/>
        <path class="cls-1" d="m41.8,38.43h5.42v17.58h-5.42v-17.58Z"/>
        <path class="cls-1" d="m50,43.53c.43-1.13,1.03-2.11,1.82-2.93s1.73-1.46,2.83-1.91c1.1-.45,2.31-.68,3.62-.68s2.52.23,3.62.68c1.1.45,2.04,1.09,2.83,1.91.79.82,1.4,1.8,1.82,2.93.43,1.13.64,2.36.64,3.69s-.21,2.56-.64,3.69c-.43,1.13-1.03,2.11-1.82,2.93-.79.82-1.73,1.46-2.83,1.91-1.1.45-2.31.68-3.62.68s-2.52-.23-3.62-.68-2.04-1.09-2.83-1.91-1.39-1.8-1.82-2.93c-.43-1.13-.64-2.36-.64-3.69s.21-2.56.64-3.69Zm5.11,6.03c.22.64.51,1.14.86,1.5.35.36.73.62,1.12.76.39.15.79.22,1.18.22s.79-.07,1.18-.22.77-.4,1.12-.76c.35-.36.64-.86.86-1.5.22-.64.33-1.42.33-2.34s-.11-1.7-.33-2.34c-.22-.64-.51-1.14-.86-1.5-.35-.36-.73-.62-1.12-.76-.39-.15-.79-.22-1.18-.22s-.79.07-1.18.22c-.39.15-.77.4-1.12.76-.35.36-.64.86-.86,1.5-.22.64-.33,1.42-.33,2.34s.11,1.7.33,2.34Z"/>
        <path class="cls-1" d="m73.65,50.1c0,.43.07.81.2,1.16.18.48.5.81.97,1s1,.28,1.61.28c.25,0,.5-.02.75-.07.25-.05.5-.13.73-.25.23-.11.41-.28.55-.49.14-.21.21-.48.21-.79,0-.23-.06-.42-.17-.58-.12-.16-.31-.3-.58-.44-.27-.14-.64-.28-1.11-.43s-1.11-.34-1.93-.57l-.29-.07c-.95-.28-1.71-.52-2.28-.73-.57-.21-1.11-.49-1.64-.85-.53-.36-.95-.83-1.27-1.39-.32-.57-.48-1.25-.48-2.05,0-.97.19-1.83.58-2.57.38-.75.91-1.36,1.58-1.83.66-.48,1.42-.83,2.26-1.06.84-.23,1.74-.34,2.67-.34,1,0,1.93.1,2.78.31s1.62.53,2.29.98c.67.45,1.21,1.05,1.61,1.79s.62,1.62.65,2.66h-5.12v-.12c.02-.07.03-.11.03-.12,0-.48-.22-.86-.67-1.16-.21-.15-.46-.26-.74-.33-.28-.07-.57-.11-.86-.11-.49,0-.94.09-1.34.26-.4.17-.6.48-.6.92.03.44.33.78.89,1.02.56.24,1.44.5,2.63.8.75.18,1.28.31,1.58.39.71.2,1.34.42,1.91.67.57.25,1.08.56,1.54.95.46.39.82.87,1.1,1.44.27.57.41,1.25.41,2.02,0,1.1-.23,2.04-.69,2.82-.46.78-1.08,1.41-1.85,1.88-.77.48-1.64.82-2.6,1.03s-1.96.32-2.99.32c-.66,0-1.4-.08-2.23-.23s-1.67-.46-2.51-.9c-.85-.44-1.55-1.09-2.12-1.94-.57-.85-.86-1.94-.87-3.25h5.42Z"/>
      </g>
      <g>
        <path class="cls-1" d="m116.97,33.07h1.63l3.36,8.73h-1.64l-.82-2.31h-3.48l-.82,2.31h-1.58l3.35-8.73Zm-.54,5.25h2.66l-1.31-3.75h-.04l-1.32,3.75Z"/>
        <path class="cls-1" d="m127.19,38.88c0,.63.2,1.11.61,1.41s.94.46,1.6.46,1.09-.13,1.39-.38c.3-.26.45-.57.45-.93,0-.31-.07-.55-.2-.71-.13-.16-.31-.29-.52-.37-.26-.1-.74-.24-1.44-.42-.54-.14-.92-.24-1.16-.31-.69-.19-1.19-.48-1.48-.87-.3-.39-.45-.84-.45-1.34,0-.42.09-.8.26-1.12.17-.32.42-.59.72-.81s.65-.38,1.03-.48.77-.16,1.18-.16c.46,0,.9.06,1.3.18s.76.3,1.07.54.55.54.72.89c.17.35.26.75.26,1.18h-1.53c-.03-.54-.21-.93-.54-1.17s-.78-.37-1.34-.37c-.2,0-.38.02-.57.05-.18.04-.35.1-.51.19s-.29.21-.38.35-.14.33-.14.54c0,.29.09.53.28.71.18.18.44.32.76.41l.34.08c.37.1.71.19,1.03.28.32.08.57.15.76.2s.32.09.39.11c.55.16.96.45,1.26.87.29.42.44.87.44,1.35s-.1.88-.29,1.23c-.19.35-.45.63-.78.85-.33.22-.7.38-1.11.49-.42.11-.85.16-1.3.16-.5,0-.98-.06-1.42-.19-.44-.13-.83-.32-1.16-.57s-.59-.58-.78-.98-.29-.86-.29-1.38h1.53Z"/>
        <path class="cls-1" d="m134.11,33.07h3.85c.59,0,1.08.08,1.47.25.4.17.7.39.92.65.22.27.37.56.45.86.08.31.13.62.13.94s-.04.62-.12.92c-.08.3-.23.59-.45.86s-.52.49-.92.65-.89.25-1.48.25h-2.32v3.35h-1.53v-8.73Zm1.53,4.13h2.24c.18,0,.36-.02.54-.07.18-.05.34-.13.5-.25.15-.11.27-.26.36-.45s.13-.41.13-.67c0-.53-.14-.9-.41-1.12-.27-.22-.64-.32-1.09-.32h-2.26v2.88Z"/>
        <path class="cls-1" d="m143.69,33.07h1.63l3.36,8.73h-1.64l-.82-2.31h-3.48l-.82,2.31h-1.58l3.35-8.73Zm-.54,5.25h2.66l-1.31-3.75h-.04l-1.32,3.75Z"/>
        <path class="cls-1" d="m147.55,33.07h7.06v1.32h-2.77v7.41h-1.53v-7.41h-2.76v-1.32Z"/>
        <path class="cls-1" d="m155.63,33.07h1.53v8.73h-1.53v-8.73Z"/>
        <path class="cls-1" d="m161.36,33.07h1.63l3.36,8.73h-1.64l-.82-2.31h-3.48l-.82,2.31h-1.58l3.35-8.73Zm-.54,5.25h2.66l-1.31-3.75h-.04l-1.32,3.75Z"/>
        <path class="cls-1" d="m167.18,33.07h1.53v7.41h4.44v1.32h-5.96v-8.73Z"/>
        <path class="cls-1" d="m177.55,33.07h1.53v3.47h3.97v-3.47h1.53v8.73h-1.53v-3.94h-3.97v3.94h-1.53v-8.73Z"/>
        <path class="cls-1" d="m186.41,33.07h1.53v8.73h-1.53v-8.73Z"/>
        <path class="cls-1" d="m190.81,38.88c0,.63.2,1.11.61,1.41s.94.46,1.6.46,1.09-.13,1.39-.38c.3-.26.45-.57.45-.93,0-.31-.07-.55-.2-.71-.13-.16-.31-.29-.52-.37-.26-.1-.74-.24-1.44-.42-.54-.14-.92-.24-1.16-.31-.69-.19-1.19-.48-1.48-.87-.3-.39-.45-.84-.45-1.34,0-.42.09-.8.26-1.12.17-.32.42-.59.72-.81s.65-.38,1.03-.48.77-.16,1.18-.16c.46,0,.9.06,1.3.18s.76.3,1.07.54.55.54.72.89c.17.35.26.75.26,1.18h-1.53c-.03-.54-.21-.93-.54-1.17s-.78-.37-1.34-.37c-.2,0-.38.02-.57.05-.18.04-.35.1-.51.19s-.29.21-.38.35-.14.33-.14.54c0,.29.09.53.28.71.18.18.44.32.76.41l.34.08c.37.1.71.19,1.03.28.32.08.57.15.76.2s.32.09.39.11c.55.16.96.45,1.26.87.29.42.44.87.44,1.35s-.1.88-.29,1.23c-.19.35-.45.63-.78.85-.33.22-.7.38-1.11.49-.42.11-.85.16-1.3.16-.5,0-.98-.06-1.42-.19-.44-.13-.83-.32-1.16-.57s-.59-.58-.78-.98-.29-.86-.29-1.38h1.53Z"/>
        <path class="cls-1" d="m196.9,33.07h7.06v1.32h-2.77v7.41h-1.53v-7.41h-2.76v-1.32Z"/>
        <path class="cls-1" d="m210.43,33.21c.52.24.96.56,1.33.98.36.42.64.91.83,1.46s.29,1.14.29,1.77-.1,1.22-.29,1.77-.47,1.04-.83,1.46c-.36.42-.8.75-1.33.98s-1.1.35-1.74.35-1.21-.12-1.74-.35-.96-.56-1.33-.98c-.36-.42-.64-.91-.83-1.46s-.29-1.14-.29-1.77.1-1.22.29-1.77.47-1.04.83-1.46c.36-.42.8-.75,1.33-.98s1.1-.35,1.74-.35,1.21.12,1.74.35Zm-2.91,1.17c-.34.18-.62.43-.83.74s-.38.66-.48,1.06c-.11.4-.16.81-.16,1.25s.05.85.16,1.24c.11.39.27.75.48,1.06.22.31.49.56.83.75.34.18.73.27,1.18.27s.84-.09,1.18-.27c.34-.18.62-.43.83-.75.22-.31.38-.67.48-1.06.11-.4.16-.81.16-1.24s-.05-.84-.16-1.24c-.11-.39-.27-.75-.48-1.06-.22-.31-.49-.56-.83-.75s-.73-.27-1.18-.27-.84.09-1.18.27Z"/>
        <path class="cls-1" d="m214.26,33.07h4.17c.95,0,1.66.21,2.15.62.49.41.73.99.73,1.74,0,.39-.06.73-.17,1-.11.28-.25.5-.41.66-.16.16-.31.28-.45.35s-.28.13-.41.18v.02c.15.02.3.07.45.13.14.07.28.17.41.31.13.14.24.33.32.56.08.23.12.51.12.84,0,.54.04,1.01.12,1.42.08.41.2.7.35.87h-1.64c-.1-.16-.16-.34-.19-.54-.03-.2-.04-.45-.04-.74,0-.84-.12-1.43-.36-1.78s-.7-.53-1.38-.53h-2.25v3.59h-1.53v-8.73Zm1.53,3.97h2.51c.99,0,1.49-.46,1.49-1.39,0-.27-.04-.49-.12-.67-.08-.17-.19-.31-.33-.41s-.3-.17-.48-.2c-.18-.04-.37-.06-.59-.06h-2.48v2.73Z"/>
        <path class="cls-1" d="m224.69,38.37l-3.28-5.3h1.77l2.31,3.91,2.27-3.91h1.71l-3.26,5.3v3.42h-1.53v-3.42Z"/>
        <path class="cls-1" d="m239.18,33.21c.52.24.96.56,1.33.98.36.42.64.91.83,1.46s.29,1.14.29,1.77-.1,1.22-.29,1.77-.47,1.04-.83,1.46c-.36.42-.8.75-1.33.98s-1.1.35-1.74.35-1.21-.12-1.74-.35-.96-.56-1.33-.98c-.36-.42-.64-.91-.83-1.46s-.29-1.14-.29-1.77.1-1.22.29-1.77.47-1.04.83-1.46c.36-.42.8-.75,1.33-.98s1.1-.35,1.74-.35,1.21.12,1.74.35Zm-2.91,1.17c-.34.18-.62.43-.83.74s-.38.66-.48,1.06c-.11.4-.16.81-.16,1.25s.05.85.16,1.24c.11.39.27.75.48,1.06.22.31.49.56.83.75.34.18.73.27,1.18.27s.84-.09,1.18-.27c.34-.18.62-.43.83-.75.22-.31.38-.67.48-1.06.11-.4.16-.81.16-1.24s-.05-.84-.16-1.24c-.11-.39-.27-.75-.48-1.06-.22-.31-.49-.56-.83-.75s-.73-.27-1.18-.27-.84.09-1.18.27Z"/>
        <path class="cls-1" d="m243.02,33.07h6.03v1.32h-4.5v2.29h3.95v1.25h-3.95v3.87h-1.53v-8.73Z"/>
        <path class="cls-1" d="m253.66,33.07h3.85c.59,0,1.08.08,1.47.25.4.17.7.39.92.65.22.27.37.56.45.86.08.31.13.62.13.94s-.04.62-.12.92c-.08.3-.23.59-.45.86s-.52.49-.92.65-.89.25-1.48.25h-2.32v3.35h-1.53v-8.73Zm1.53,4.13h2.24c.18,0,.36-.02.54-.07.18-.05.34-.13.5-.25.15-.11.27-.26.36-.45s.13-.41.13-.67c0-.53-.14-.9-.41-1.12-.27-.22-.64-.32-1.09-.32h-2.26v2.88Z"/>
        <path class="cls-1" d="m261.72,33.07h1.53v5.08c0,.38.02.71.06.98.04.27.12.52.25.76s.34.43.62.57.66.22,1.12.22.84-.07,1.12-.22.49-.34.62-.57.21-.49.25-.76c.04-.27.05-.59.05-.98v-5.08h1.53v5.58c0,1.09-.32,1.92-.96,2.49s-1.51.86-2.62.86-1.98-.29-2.62-.86-.96-1.4-.96-2.49v-5.58Z"/>
        <path class="cls-1" d="m270.64,33.07h6.28v1.32h-4.75v2.29h4.4v1.25h-4.4v2.55h4.84v1.32h-6.37v-8.73Z"/>
        <path class="cls-1" d="m278.34,33.07h4.17c.95,0,1.66.21,2.15.62.49.41.73.99.73,1.74,0,.39-.06.73-.17,1-.11.28-.25.5-.41.66-.16.16-.31.28-.45.35s-.28.13-.41.18v.02c.15.02.3.07.45.13.14.07.28.17.41.31.13.14.24.33.32.56.08.23.12.51.12.84,0,.54.04,1.01.12,1.42.08.41.2.7.35.87h-1.64c-.1-.16-.16-.34-.19-.54-.03-.2-.04-.45-.04-.74,0-.84-.12-1.43-.36-1.78s-.7-.53-1.38-.53h-2.25v3.59h-1.53v-8.73Zm1.53,3.97h2.51c.99,0,1.49-.46,1.49-1.39,0-.27-.04-.49-.12-.67-.08-.17-.19-.31-.33-.41s-.3-.17-.48-.2c-.18-.04-.37-.06-.59-.06h-2.48v2.73Z"/>
        <path class="cls-1" d="m285.89,33.07h7.06v1.32h-2.77v7.41h-1.53v-7.41h-2.76v-1.32Z"/>
        <path class="cls-1" d="m299.42,33.21c.52.24.96.56,1.33.98.36.42.64.91.83,1.46s.29,1.14.29,1.77-.1,1.22-.29,1.77-.47,1.04-.83,1.46c-.36.42-.8.75-1.33.98s-1.1.35-1.74.35-1.21-.12-1.74-.35-.96-.56-1.33-.98c-.36-.42-.64-.91-.83-1.46s-.29-1.14-.29-1.77.1-1.22.29-1.77.47-1.04.83-1.46c.36-.42.8-.75,1.33-.98s1.1-.35,1.74-.35,1.21.12,1.74.35Zm-2.91,1.17c-.34.18-.62.43-.83.74s-.38.66-.48,1.06c-.11.4-.16.81-.16,1.25s.05.85.16,1.24c.11.39.27.75.48,1.06.22.31.49.56.83.75.34.18.73.27,1.18.27s.84-.09,1.18-.27c.34-.18.62-.43.83-.75.22-.31.38-.67.48-1.06.11-.4.16-.81.16-1.24s-.05-.84-.16-1.24c-.11-.39-.27-.75-.48-1.06-.22-.31-.49-.56-.83-.75s-.73-.27-1.18-.27-.84.09-1.18.27Z"/>
        <path class="cls-1" d="m306.65,33.07h4.17c.95,0,1.66.21,2.15.62.49.41.73.99.73,1.74,0,.39-.06.73-.17,1-.11.28-.25.5-.41.66-.16.16-.31.28-.45.35s-.28.13-.41.18v.02c.15.02.3.07.45.13.14.07.28.17.41.31.13.14.24.33.32.56.08.23.12.51.12.84,0,.54.04,1.01.12,1.42.08.41.2.7.35.87h-1.64c-.1-.16-.16-.34-.19-.54-.03-.2-.04-.45-.04-.74,0-.84-.12-1.43-.36-1.78s-.7-.53-1.38-.53h-2.25v3.59h-1.53v-8.73Zm1.53,3.97h2.51c.99,0,1.49-.46,1.49-1.39,0-.27-.04-.49-.12-.67-.08-.17-.19-.31-.33-.41s-.3-.17-.48-.2c-.18-.04-.37-.06-.59-.06h-2.48v2.73Z"/>
        <path class="cls-1" d="m315.26,33.07h1.53v8.73h-1.53v-8.73Z"/>
        <path class="cls-1" d="m324.54,35.84c-.14-.54-.38-.96-.74-1.27s-.83-.46-1.44-.46c-.45,0-.84.09-1.18.27-.34.18-.62.43-.83.74s-.38.66-.48,1.06c-.11.4-.16.81-.16,1.25s.05.85.16,1.24c.11.39.27.75.48,1.06.22.31.49.56.83.75.34.18.73.27,1.18.27.65,0,1.17-.21,1.55-.64.38-.43.61-.98.67-1.64h1.49c-.03.52-.15,1-.34,1.43-.19.43-.45.8-.78,1.12-.33.31-.71.56-1.16.73s-.93.26-1.45.26c-.63,0-1.21-.12-1.74-.35s-.96-.56-1.33-.98c-.36-.42-.64-.91-.83-1.46s-.29-1.14-.29-1.77.1-1.22.29-1.77.47-1.04.83-1.46c.36-.42.8-.75,1.33-.98s1.1-.35,1.74-.35c1.01,0,1.85.27,2.52.79.34.26.62.57.82.94.2.37.33.78.37,1.25h-1.53Z"/>
        <path class="cls-1" d="m332.93,33.21c.52.24.96.56,1.33.98.36.42.64.91.83,1.46s.29,1.14.29,1.77-.1,1.22-.29,1.77-.47,1.04-.83,1.46c-.36.42-.8.75-1.33.98s-1.1.35-1.74.35-1.21-.12-1.74-.35-.96-.56-1.33-.98c-.36-.42-.64-.91-.83-1.46s-.29-1.14-.29-1.77.1-1.22.29-1.77.47-1.04.83-1.46c.36-.42.8-.75,1.33-.98s1.1-.35,1.74-.35,1.21.12,1.74.35Zm-2.91,1.17c-.34.18-.62.43-.83.74s-.38.66-.48,1.06c-.11.4-.16.81-.16,1.25s.05.85.16,1.24c.11.39.27.75.48,1.06.22.31.49.56.83.75.34.18.73.27,1.18.27s.84-.09,1.18-.27c.34-.18.62-.43.83-.75.22-.31.38-.67.48-1.06.11-.4.16-.81.16-1.24s-.05-.84-.16-1.24c-.11-.39-.27-.75-.48-1.06-.22-.31-.49-.56-.83-.75s-.73-.27-1.18-.27-.84.09-1.18.27Z"/>
        <path class="cls-1" d="m336.78,35.8c.27-.03.46-.15.57-.34.11-.2.17-.44.17-.75h-.75v-1.65h1.53v1.65c0,.47-.14.88-.42,1.21-.28.33-.65.53-1.11.59v-.71Z"/>
        <path class="cls-1" d="m341.16,38.88c0,.63.2,1.11.61,1.41s.94.46,1.6.46,1.09-.13,1.39-.38c.3-.26.45-.57.45-.93,0-.31-.07-.55-.2-.71-.13-.16-.31-.29-.52-.37-.26-.1-.74-.24-1.44-.42-.54-.14-.92-.24-1.16-.31-.69-.19-1.19-.48-1.48-.87-.3-.39-.45-.84-.45-1.34,0-.42.09-.8.26-1.12.17-.32.42-.59.72-.81s.65-.38,1.03-.48.77-.16,1.18-.16c.46,0,.9.06,1.3.18s.76.3,1.07.54.55.54.72.89c.17.35.26.75.26,1.18h-1.53c-.03-.54-.21-.93-.54-1.17s-.78-.37-1.34-.37c-.2,0-.38.02-.57.05-.18.04-.35.1-.51.19s-.29.21-.38.35-.14.33-.14.54c0,.29.09.53.28.71.18.18.44.32.76.41l.34.08c.37.1.71.19,1.03.28.32.08.57.15.76.2s.32.09.39.11c.55.16.96.45,1.26.87.29.42.44.87.44,1.35s-.1.88-.29,1.23c-.19.35-.45.63-.78.85-.33.22-.7.38-1.11.49-.42.11-.85.16-1.3.16-.5,0-.98-.06-1.42-.19-.44-.13-.83-.32-1.16-.57s-.59-.58-.78-.98-.29-.86-.29-1.38h1.53Z"/>
        <path class="cls-1" d="m351.45,33.07h2.15l2.41,6.83h.02l2.35-6.83h2.13v8.73h-1.45v-6.73h-.02l-2.42,6.73h-1.26l-2.42-6.73h-.02v6.73h-1.45v-8.73Z"/>
        <path class="cls-1" d="m367.79,33.21c.52.24.96.56,1.33.98.36.42.64.91.83,1.46s.29,1.14.29,1.77-.1,1.22-.29,1.77-.47,1.04-.83,1.46c-.36.42-.8.75-1.33.98s-1.1.35-1.74.35-1.21-.12-1.74-.35-.96-.56-1.33-.98c-.36-.42-.64-.91-.83-1.46s-.29-1.14-.29-1.77.1-1.22.29-1.77.47-1.04.83-1.46c.36-.42.8-.75,1.33-.98s1.1-.35,1.74-.35,1.21.12,1.74.35Zm-2.91,1.17c-.34.18-.62.43-.83.74s-.38.66-.48,1.06c-.11.4-.16.81-.16,1.25s.05.85.16,1.24c.11.39.27.75.48,1.06.22.31.49.56.83.75.34.18.73.27,1.18.27s.84-.09,1.18-.27c.34-.18.62-.43.83-.75.22-.31.38-.67.48-1.06.11-.4.16-.81.16-1.24s-.05-.84-.16-1.24c-.11-.39-.27-.75-.48-1.06-.22-.31-.49-.56-.83-.75s-.73-.27-1.18-.27-.84.09-1.18.27Z"/>
        <path class="cls-1" d="m371.63,33.07h3.62c.65,0,1.22.11,1.71.34.49.22.89.53,1.21.93.32.4.55.86.7,1.39.15.53.23,1.1.23,1.71s-.08,1.18-.23,1.71c-.15.53-.38.99-.7,1.39-.32.4-.72.7-1.21.93-.49.22-1.06.34-1.71.34h-3.62v-8.73Zm1.53,7.48h1.5c.58,0,1.06-.08,1.44-.23.38-.16.68-.37.89-.65s.36-.6.45-.97c.08-.37.13-.79.13-1.26s-.04-.89-.13-1.26c-.09-.37-.23-.69-.45-.97-.21-.28-.51-.49-.89-.65-.38-.15-.86-.23-1.44-.23h-1.5v6.23Z"/>
        <path class="cls-1" d="m380.45,33.07h6.28v1.32h-4.75v2.29h4.4v1.25h-4.4v2.55h4.84v1.32h-6.37v-8.73Z"/>
        <path class="cls-1" d="m388.15,33.07h4.17c.95,0,1.66.21,2.15.62.49.41.73.99.73,1.74,0,.39-.06.73-.17,1-.11.28-.25.5-.41.66-.16.16-.31.28-.45.35s-.28.13-.41.18v.02c.15.02.3.07.45.13.14.07.28.17.41.31.13.14.24.33.32.56.08.23.12.51.12.84,0,.54.04,1.01.12,1.42.08.41.2.7.35.87h-1.64c-.1-.16-.16-.34-.19-.54-.03-.2-.04-.45-.04-.74,0-.84-.12-1.43-.36-1.78s-.7-.53-1.38-.53h-2.25v3.59h-1.53v-8.73Zm1.53,3.97h2.51c.99,0,1.49-.46,1.49-1.39,0-.27-.04-.49-.12-.67-.08-.17-.19-.31-.33-.41s-.3-.17-.48-.2c-.18-.04-.37-.06-.59-.06h-2.48v2.73Z"/>
        <path class="cls-1" d="m396.7,33.07h1.61l3.98,6.43h.02v-6.43h1.45v8.73h-1.61l-3.97-6.42h-.04v6.42h-1.45v-8.73Z"/>
        <path class="cls-1" d="m405.58,33.07h1.53v8.73h-1.53v-8.73Z"/>
        <path class="cls-1" d="m408.72,33.07h6.64v1.16l-5.08,6.24h5.21v1.32h-7.15v-1.25l5.08-6.16h-4.69v-1.32Z"/>
        <path class="cls-1" d="m419.01,33.07h1.63l3.36,8.73h-1.64l-.82-2.31h-3.48l-.82,2.31h-1.58l3.35-8.73Zm-.54,5.25h2.66l-1.31-3.75h-.04l-1.32,3.75Z"/>
        <path class="cls-1" d="m422.87,33.07h7.06v1.32h-2.77v7.41h-1.53v-7.41h-2.76v-1.32Z"/>
        <path class="cls-1" d="m430.95,33.07h1.53v8.73h-1.53v-8.73Z"/>
        <path class="cls-1" d="m439.8,33.21c.52.24.96.56,1.33.98.36.42.64.91.83,1.46s.29,1.14.29,1.77-.1,1.22-.29,1.77-.47,1.04-.83,1.46c-.36.42-.8.75-1.33.98s-1.1.35-1.74.35-1.21-.12-1.74-.35-.96-.56-1.33-.98c-.36-.42-.64-.91-.83-1.46s-.29-1.14-.29-1.77.1-1.22.29-1.77.47-1.04.83-1.46c.36-.42.8-.75,1.33-.98s1.1-.35,1.74-.35,1.21.12,1.74.35Zm-2.91,1.17c-.34.18-.62.43-.83.74s-.38.66-.48,1.06c-.11.4-.16.81-.16,1.25s.05.85.16,1.24c.11.39.27.75.48,1.06.22.31.49.56.83.75.34.18.73.27,1.18.27s.84-.09,1.18-.27c.34-.18.62-.43.83-.75.22-.31.38-.67.48-1.06.11-.4.16-.81.16-1.24s-.05-.84-.16-1.24c-.11-.39-.27-.75-.48-1.06-.22-.31-.49-.56-.83-.75s-.73-.27-1.18-.27-.84.09-1.18.27Z"/>
        <path class="cls-1" d="m443.57,33.07h1.61l3.98,6.43h.02v-6.43h1.45v8.73h-1.61l-3.97-6.42h-.04v6.42h-1.45v-8.73Z"/>
        <path class="cls-1" d="m452.37,35.61h1.7v1.65h-1.7v-1.65Zm0,4.53h1.7v1.65h-1.7v-1.65Z"/>
        <path class="cls-1" d="m113.81,47.73h7.06v1.32h-2.77v7.41h-1.53v-7.41h-2.76v-1.32Z"/>
        <path class="cls-1" d="m121.85,47.73h1.53v3.47h3.97v-3.47h1.53v8.73h-1.53v-3.94h-3.97v3.94h-1.53v-8.73Z"/>
        <path class="cls-1" d="m130.71,47.73h6.28v1.32h-4.75v2.29h4.4v1.25h-4.4v2.55h4.84v1.32h-6.37v-8.73Z"/>
        <path class="cls-1" d="m140.95,47.73h1.55l1.58,6.67h.02l1.76-6.67h1.56l1.71,6.67h.02l1.62-6.67h1.55l-2.41,8.73h-1.55l-1.75-6.67h-.02l-1.78,6.67h-1.58l-2.3-8.73Z"/>
        <path class="cls-1" d="m158.79,47.88c.52.24.96.56,1.33.98.36.42.64.91.83,1.46s.29,1.14.29,1.77-.1,1.22-.29,1.77-.47,1.04-.83,1.46c-.36.42-.8.75-1.33.98s-1.1.35-1.74.35-1.21-.12-1.74-.35-.96-.56-1.33-.98c-.36-.42-.64-.91-.83-1.46s-.29-1.14-.29-1.77.1-1.22.29-1.77.47-1.04.83-1.46c.36-.42.8-.75,1.33-.98s1.1-.35,1.74-.35,1.21.12,1.74.35Zm-2.91,1.17c-.34.18-.62.43-.83.74s-.38.66-.48,1.06c-.11.4-.16.81-.16,1.25s.05.85.16,1.24c.11.39.27.75.48,1.06.22.31.49.56.83.75.34.18.73.27,1.18.27s.84-.09,1.18-.27c.34-.18.62-.43.83-.75.22-.31.38-.67.48-1.06.11-.4.16-.81.16-1.24s-.05-.84-.16-1.24c-.11-.39-.27-.75-.48-1.06-.22-.31-.49-.56-.83-.75s-.73-.27-1.18-.27-.84.09-1.18.27Z"/>
        <path class="cls-1" d="m162.63,47.73h4.17c.95,0,1.66.21,2.15.62.49.41.73.99.73,1.74,0,.39-.06.73-.17,1-.11.28-.25.5-.41.66-.16.16-.31.28-.45.35s-.28.13-.41.18v.02c.15.02.3.07.45.13.14.07.28.17.41.31.13.14.24.33.32.56.08.23.12.51.12.84,0,.54.04,1.01.12,1.42.08.41.2.7.35.87h-1.64c-.1-.16-.16-.34-.19-.54-.03-.2-.04-.45-.04-.74,0-.84-.12-1.43-.36-1.78s-.7-.53-1.38-.53h-2.25v3.59h-1.53v-8.73Zm1.53,3.97h2.51c.99,0,1.49-.46,1.49-1.39,0-.27-.04-.49-.12-.67-.08-.17-.19-.31-.33-.41s-.3-.17-.48-.2c-.18-.04-.37-.06-.59-.06h-2.48v2.73Z"/>
        <path class="cls-1" d="m171.23,47.73h1.53v3.97l3.89-3.97h1.88l-3.48,3.48,3.73,5.24h-1.91l-2.86-4.17-1.25,1.23v2.93h-1.53v-8.73Z"/>
        <path class="cls-1" d="m180.61,53.55c0,.63.2,1.11.61,1.41s.94.46,1.6.46,1.09-.13,1.39-.38c.3-.26.45-.57.45-.93,0-.31-.07-.55-.2-.71-.13-.16-.31-.29-.52-.37-.26-.1-.74-.24-1.44-.42-.54-.14-.92-.24-1.16-.31-.69-.19-1.19-.48-1.48-.87-.3-.39-.45-.84-.45-1.34,0-.42.09-.8.26-1.12.17-.32.42-.59.72-.81s.65-.38,1.03-.48.77-.16,1.18-.16c.46,0,.9.06,1.3.18s.76.3,1.07.54.55.54.72.89c.17.35.26.75.26,1.18h-1.53c-.03-.54-.21-.93-.54-1.17s-.78-.37-1.34-.37c-.2,0-.38.02-.57.05-.18.04-.35.1-.51.19s-.29.21-.38.35-.14.33-.14.54c0,.29.09.53.28.71.18.18.44.32.76.41l.34.08c.37.1.71.19,1.03.28.32.08.57.15.76.2s.32.09.39.11c.55.16.96.45,1.26.87.29.42.44.87.44,1.35s-.1.88-.29,1.23c-.19.35-.45.63-.78.85-.33.22-.7.38-1.11.49-.42.11-.85.16-1.3.16-.5,0-.98-.06-1.42-.19-.44-.13-.83-.32-1.16-.57s-.59-.58-.78-.98-.29-.86-.29-1.38h1.53Z"/>
        <path class="cls-1" d="m196.37,47.88c.52.24.96.56,1.33.98.36.42.64.91.83,1.46s.29,1.14.29,1.77-.1,1.22-.29,1.77-.47,1.04-.83,1.46c-.36.42-.8.75-1.33.98s-1.1.35-1.74.35-1.21-.12-1.74-.35-.96-.56-1.33-.98c-.36-.42-.64-.91-.83-1.46s-.29-1.14-.29-1.77.1-1.22.29-1.77.47-1.04.83-1.46c.36-.42.8-.75,1.33-.98s1.1-.35,1.74-.35,1.21.12,1.74.35Zm-2.91,1.17c-.34.18-.62.43-.83.74s-.38.66-.48,1.06c-.11.4-.16.81-.16,1.25s.05.85.16,1.24c.11.39.27.75.48,1.06.22.31.49.56.83.75.34.18.73.27,1.18.27s.84-.09,1.18-.27c.34-.18.62-.43.83-.75.22-.31.38-.67.48-1.06.11-.4.16-.81.16-1.24s-.05-.84-.16-1.24c-.11-.39-.27-.75-.48-1.06-.22-.31-.49-.56-.83-.75s-.73-.27-1.18-.27-.84.09-1.18.27Z"/>
        <path class="cls-1" d="m200.21,47.73h6.03v1.32h-4.5v2.29h3.95v1.25h-3.95v3.87h-1.53v-8.73Z"/>
        <path class="cls-1" d="m210.82,47.73h1.53v3.47h3.97v-3.47h1.53v8.73h-1.53v-3.94h-3.97v3.94h-1.53v-8.73Z"/>
        <path class="cls-1" d="m219.68,47.73h6.28v1.32h-4.75v2.29h4.4v1.25h-4.4v2.55h4.84v1.32h-6.37v-8.73Z"/>
        <path class="cls-1" d="m227.32,47.73h1.61l3.98,6.43h.02v-6.43h1.45v8.73h-1.61l-3.97-6.42h-.04v6.42h-1.45v-8.73Z"/>
        <path class="cls-1" d="m236.2,47.73h4.17c.95,0,1.66.21,2.15.62.49.41.73.99.73,1.74,0,.39-.06.73-.17,1-.11.28-.25.5-.41.66-.16.16-.31.28-.45.35s-.28.13-.41.18v.02c.15.02.3.07.45.13.14.07.28.17.41.31.13.14.24.33.32.56.08.23.12.51.12.84,0,.54.04,1.01.12,1.42.08.41.2.7.35.87h-1.64c-.1-.16-.16-.34-.19-.54-.03-.2-.04-.45-.04-.74,0-.84-.12-1.43-.36-1.78s-.7-.53-1.38-.53h-2.25v3.59h-1.53v-8.73Zm1.53,3.97h2.51c.99,0,1.49-.46,1.49-1.39,0-.27-.04-.49-.12-.67-.08-.17-.19-.31-.33-.41s-.3-.17-.48-.2c-.18-.04-.37-.06-.59-.06h-2.48v2.73Z"/>
        <path class="cls-1" d="m246.62,53.04l-3.28-5.3h1.77l2.31,3.91,2.27-3.91h1.71l-3.26,5.3v3.42h-1.53v-3.42Z"/>
        <path class="cls-1" d="m255.67,47.73h1.53v3.97l3.89-3.97h1.88l-3.48,3.48,3.73,5.24h-1.91l-2.86-4.17-1.25,1.23v2.93h-1.53v-8.73Z"/>
        <path class="cls-1" d="m264.04,47.73h1.53v7.41h4.44v1.32h-5.96v-8.73Z"/>
        <path class="cls-1" d="m270.96,47.73h1.53v5.08c0,.38.02.71.06.98.04.27.12.52.25.76s.34.43.62.57.66.22,1.12.22.84-.07,1.12-.22.49-.34.62-.57.21-.49.25-.76c.04-.27.05-.59.05-.98v-5.08h1.53v5.58c0,1.09-.32,1.92-.96,2.49s-1.51.86-2.62.86-1.98-.29-2.62-.86-.96-1.4-.96-2.49v-5.58Z"/>
        <path class="cls-1" d="m279.85,47.73h2.15l2.41,6.83h.02l2.35-6.83h2.13v8.73h-1.45v-6.73h-.02l-2.42,6.73h-1.26l-2.42-6.73h-.02v6.73h-1.45v-8.73Z"/>
        <path class="cls-1" d="m290.74,47.73h4.24c.81,0,1.44.18,1.9.55.46.37.69.9.69,1.61,0,.43-.11.81-.32,1.12-.22.32-.52.56-.92.73v.02c.53.11.93.37,1.22.76.28.4.42.89.42,1.49,0,.72-.27,1.31-.8,1.76-.53.45-1.34.67-2.41.67h-4.01v-8.73Zm1.53,3.65h2.49c.38,0,.68-.11.92-.32s.36-.51.36-.89c0-.43-.11-.74-.32-.92s-.53-.28-.97-.28h-2.49v2.41Zm0,3.83h2.7c.46,0,.83-.12,1.08-.36.26-.24.39-.58.39-1.02s-.13-.75-.39-.99c-.26-.24-.62-.35-1.08-.35h-2.7v2.73Z"/>
      </g>
      <line class="cls-2" x1="98.71" x2="98.71" y2="56.49"/>
    </g>
  </g>
</svg>