<?xml version="1.0" encoding="UTF-8"?>
<svg id="Layer_2" data-name="Layer 2" xmlns="http://www.w3.org/2000/svg" viewBox="0 0 96.57 56.68">
  <defs>
    <style>
      .cls-1 {
        fill: none;
        stroke: #2d2d2d;
        stroke-miterlimit: 10;
      }

      .cls-2 {
        fill: #565656;
        stroke-width: 0px;
      }
    </style>
  </defs>
  <g id="terms_of_use" data-name="terms of use">
    <g>
      <g>
        <path class="cls-2" d="m14.66,48.51h6.46v1.21h-2.54v6.77h-1.4v-6.77h-2.52v-1.21Z"/>
        <path class="cls-2" d="m22.04,48.51h5.74v1.21h-4.35v2.09h4.02v1.14h-4.02v2.33h4.42v1.21h-5.82v-7.98Z"/>
        <path class="cls-2" d="m29.08,48.51h3.81c.86,0,1.52.19,1.97.56.45.38.67.91.67,1.59,0,.36-.05.66-.16.92s-.23.45-.37.6c-.15.15-.28.26-.41.32-.13.07-.25.12-.37.17v.02c.14.02.28.06.41.12.13.06.25.15.37.29.12.13.22.3.29.51.08.21.11.47.11.76,0,.49.04.93.11,1.3s.18.64.32.8h-1.5c-.09-.15-.15-.31-.17-.5-.03-.18-.04-.41-.04-.68,0-.77-.11-1.31-.33-1.63s-.64-.48-1.26-.48h-2.06v3.28h-1.4v-7.98Zm1.4,3.63h2.29c.91,0,1.36-.42,1.36-1.27,0-.25-.04-.45-.11-.61-.07-.16-.17-.28-.3-.37-.13-.09-.28-.15-.44-.18-.16-.03-.34-.05-.54-.05h-2.27v2.49Z"/>
        <path class="cls-2" d="m36.93,48.51h1.97l2.2,6.25h.02l2.15-6.25h1.94v7.98h-1.33v-6.16h-.02l-2.21,6.16h-1.15l-2.21-6.16h-.02v6.16h-1.33v-7.98Z"/>
        <path class="cls-2" d="m47.79,53.83c0,.58.19,1.01.56,1.29.37.28.86.42,1.46.42s1-.12,1.27-.35c.28-.23.41-.52.41-.85,0-.28-.06-.5-.18-.65-.12-.15-.28-.26-.48-.34-.24-.09-.68-.22-1.32-.38-.49-.13-.85-.22-1.06-.28-.63-.17-1.09-.44-1.36-.79-.27-.36-.41-.77-.41-1.23,0-.39.08-.73.24-1.02.16-.29.38-.54.66-.74s.59-.34.94-.44c.35-.1.71-.14,1.08-.14.42,0,.82.05,1.19.16.37.11.69.27.98.49s.5.49.66.81.24.68.24,1.08h-1.4c-.03-.49-.2-.85-.5-1.07-.3-.22-.71-.34-1.22-.34-.18,0-.35.02-.52.05s-.32.09-.47.17c-.15.08-.26.19-.35.32-.09.13-.13.3-.13.49,0,.27.08.49.25.65s.4.29.7.37l.31.08c.33.09.65.17.94.25.29.08.52.14.69.18.17.04.29.08.36.1.5.15.88.42,1.15.8.27.38.4.79.4,1.23s-.09.81-.26,1.13c-.18.32-.41.58-.71.78s-.64.35-1.02.45-.77.14-1.18.14c-.46,0-.89-.06-1.3-.17-.4-.12-.75-.29-1.06-.52-.3-.23-.54-.53-.71-.89s-.26-.79-.27-1.26h1.4Z"/>
        <path class="cls-2" d="m62.2,48.65c.48.22.88.52,1.21.9.33.38.58.83.76,1.33.17.51.26,1.05.26,1.62s-.09,1.11-.26,1.62c-.18.51-.43.95-.76,1.33-.33.38-.74.68-1.21.9s-1,.32-1.59.32-1.11-.11-1.59-.32c-.48-.22-.88-.52-1.21-.9-.33-.38-.58-.83-.76-1.33-.18-.51-.26-1.05-.26-1.62s.09-1.11.26-1.62c.17-.51.43-.95.76-1.33.33-.38.74-.68,1.21-.9.48-.22,1-.32,1.59-.32s1.11.11,1.59.32Zm-2.66,1.07c-.31.17-.56.39-.76.68s-.34.61-.44.97c-.1.37-.14.75-.14,1.14s.05.77.14,1.13.24.69.44.97c.2.29.45.51.76.68.31.17.67.25,1.08.25s.77-.08,1.08-.25c.31-.17.56-.39.76-.68.2-.29.34-.61.44-.97s.14-.74.14-1.13-.05-.77-.14-1.13-.24-.69-.44-.97c-.2-.29-.45-.51-.76-.68-.31-.17-.67-.25-1.08-.25s-.77.08-1.08.25Z"/>
        <path class="cls-2" d="m65.71,48.51h5.51v1.21h-4.11v2.09h3.61v1.14h-3.61v3.54h-1.4v-7.98Z"/>
        <path class="cls-2" d="m75.35,48.51h1.4v4.65c0,.35.02.65.05.89.03.25.11.48.23.69.12.22.31.39.57.53s.6.2,1.03.2.77-.07,1.03-.2.45-.31.57-.53c.12-.22.2-.45.23-.69s.05-.54.05-.89v-4.65h1.4v5.11c0,1-.29,1.76-.88,2.28-.58.52-1.38.78-2.4.78s-1.81-.26-2.4-.78-.88-1.28-.88-2.28v-5.11Z"/>
        <path class="cls-2" d="m84.42,53.83c0,.58.19,1.01.56,1.29.37.28.86.42,1.46.42s1-.12,1.27-.35c.28-.23.41-.52.41-.85,0-.28-.06-.5-.18-.65-.12-.15-.28-.26-.48-.34-.24-.09-.68-.22-1.32-.38-.49-.13-.85-.22-1.06-.28-.63-.17-1.09-.44-1.36-.79-.27-.36-.41-.77-.41-1.23,0-.39.08-.73.24-1.02.16-.29.38-.54.66-.74s.59-.34.94-.44c.35-.1.71-.14,1.08-.14.42,0,.82.05,1.19.16.37.11.69.27.98.49s.5.49.66.81.24.68.24,1.08h-1.4c-.03-.49-.2-.85-.5-1.07-.3-.22-.71-.34-1.22-.34-.18,0-.35.02-.52.05s-.32.09-.47.17c-.15.08-.26.19-.35.32-.09.13-.13.3-.13.49,0,.27.08.49.25.65s.4.29.7.37l.31.08c.33.09.65.17.94.25.29.08.52.14.69.18.17.04.29.08.36.1.5.15.88.42,1.15.8.27.38.4.79.4,1.23s-.09.81-.26,1.13c-.18.32-.41.58-.71.78s-.64.35-1.02.45-.77.14-1.18.14c-.46,0-.89-.06-1.3-.17-.4-.12-.75-.29-1.06-.52-.3-.23-.54-.53-.71-.89s-.26-.79-.27-1.26h1.4Z"/>
        <path class="cls-2" d="m90.75,48.51h5.74v1.21h-4.35v2.09h4.02v1.14h-4.02v2.33h4.42v1.21h-5.82v-7.98Z"/>
      </g>
      <line class="cls-1" x1=".5" x2=".5" y2="56.39"/>
    </g>
  </g>
</svg>